{"glyphs":{"0":{"ha":989,"x_min":0,"x_max":0,"o":"m 968 574 b 606 975 968 851 811 975 b 94 385 350 975 94 797 b 456 -17 94 107 250 -17 b 968 574 711 -17 968 161 z m 815 565 b 475 119 815 257 646 119 b 247 393 347 119 247 196 b 586 842 247 704 415 842 b 815 565 714 842 815 765 z "},"1":{"ha":560,"x_min":0,"x_max":0,"o":"m 558 958 l 442 958 l 107 818 l 143 696 l 379 790 l 254 0 l 407 0 z "},"2":{"ha":818,"x_min":0,"x_max":0,"o":"m 803 722 b 511 975 803 868 715 975 b 143 833 317 975 192 879 l 208 724 b 486 842 249 763 343 842 b 650 697 600 842 650 782 b 296 307 650 567 544 497 l 47 117 l 29 0 l 721 0 l 742 133 l 278 133 l 278 136 l 464 272 b 803 722 649 408 803 511 z "},"3":{"ha":788,"x_min":0,"x_max":0,"o":"m 782 757 b 501 975 782 897 674 975 b 151 856 304 975 200 894 l 208 744 b 474 843 249 776 339 843 b 629 729 578 843 629 796 b 333 563 629 622 510 563 l 290 563 l 271 438 l 313 438 b 574 278 483 438 574 382 b 354 118 574 176 497 118 b 104 224 213 118 133 193 l 33 100 b 346 -17 74 63 168 -17 b 725 260 579 -17 725 92 b 558 499 725 414 649 478 l 558 501 b 782 757 660 521 782 597 z "},"4":{"ha":875,"x_min":0,"x_max":0,"o":"m 858 378 l 714 378 l 806 958 l 672 958 l 60 365 l 40 249 l 543 249 l 504 0 l 654 0 l 693 249 l 839 249 z m 564 378 l 242 378 l 622 764 l 625 764 z "},"5":{"ha":818,"x_min":0,"x_max":0,"o":"m 758 314 b 372 604 758 511 618 604 l 328 604 l 386 828 l 808 828 l 828 958 l 281 958 l 157 482 l 317 482 b 606 306 508 482 606 429 b 350 118 606 186 518 118 b 81 224 208 118 111 190 l 18 93 b 354 -17 53 60 150 -17 b 758 314 592 -17 758 106 z "},"6":{"ha":865,"x_min":0,"x_max":0,"o":"m 825 347 b 536 618 825 517 714 618 b 257 533 414 618 324 579 b 631 844 301 742 444 844 b 826 778 743 844 804 794 l 886 900 b 638 975 860 921 789 975 b 93 369 354 975 93 790 b 428 -17 93 115 215 -17 b 825 347 664 -17 825 124 z m 242 382 b 242 415 242 393 242 404 b 496 494 297 453 381 494 b 682 333 611 494 682 438 b 444 117 682 194 588 117 b 242 382 318 117 242 194 z "},"7":{"ha":796,"x_min":0,"x_max":0,"o":"m 872 958 l 167 958 l 146 828 l 669 828 l 669 825 l 50 0 l 238 0 l 854 840 z "},"8":{"ha":850,"x_min":0,"x_max":0,"o":"m 842 750 b 539 975 842 889 725 975 b 169 713 329 975 169 878 b 310 500 169 593 238 532 l 310 497 b 67 215 206 454 67 379 b 390 -17 67 71 190 -17 b 790 260 622 -17 790 86 b 628 496 790 392 699 464 l 628 499 b 842 750 715 539 842 600 z m 697 732 b 490 554 697 636 582 592 b 314 710 411 583 314 618 b 525 853 314 801 404 853 b 697 732 629 853 697 808 z m 638 269 b 401 113 638 171 540 113 b 218 242 289 113 218 163 b 447 446 218 358 356 411 b 638 269 533 415 638 371 z "},"9":{"ha":878,"x_min":0,"x_max":0,"o":"m 856 583 b 506 975 856 844 726 975 b 121 629 289 975 121 839 b 415 339 121 444 236 339 b 694 424 539 339 629 378 b 331 117 656 207 532 117 b 107 192 206 117 133 172 l 61 61 b 335 -17 92 38 168 -17 b 856 583 636 -17 856 158 z m 263 636 b 503 847 263 771 368 847 b 707 582 631 847 707 763 b 706 535 707 565 707 550 b 447 461 651 499 564 461 b 263 636 324 461 263 524 z "},"\u0000":{"ha":0,"x_min":0,"x_max":0,"o":""},"\r":{"ha":0,"x_min":0,"x_max":0,"o":""}," ":{"ha":396,"x_min":0,"x_max":0,"o":""},"​":{"ha":0,"x_min":0,"x_max":0,"o":""}," ":{"ha":396,"x_min":0,"x_max":0,"o":""},"A":{"ha":1038,"x_min":0,"x_max":0,"o":"m 713 958 l 551 958 l -29 0 l 136 0 l 304 288 l 746 288 l 822 0 l 986 0 z m 717 401 l 368 401 l 607 814 l 608 814 z "},"Á":{"ha":1038,"x_min":0,"x_max":0,"o":"m 935 1179 l 753 1179 l 563 1011 l 708 1011 l 935 1176 z m 713 958 l 551 958 l -29 0 l 136 0 l 304 288 l 746 288 l 822 0 l 986 0 z m 717 401 l 368 401 l 607 814 l 608 814 z "},"Ă":{"ha":1038,"x_min":0,"x_max":0,"o":"m 860 1175 l 760 1175 b 650 1103 749 1132 715 1103 b 561 1167 585 1103 561 1128 l 561 1175 l 464 1175 b 463 1151 463 1168 463 1160 b 638 1010 463 1071 514 1010 b 860 1175 774 1010 840 1086 z m 713 958 l 551 958 l -29 0 l 136 0 l 304 288 l 746 288 l 822 0 l 986 0 z m 717 401 l 368 401 l 607 814 l 608 814 z "},"Â":{"ha":1038,"x_min":0,"x_max":0,"o":"m 860 1011 l 740 1176 l 585 1176 l 413 1011 l 535 1011 l 653 1101 l 654 1101 l 742 1011 z m 713 958 l 551 958 l -29 0 l 136 0 l 304 288 l 746 288 l 822 0 l 986 0 z m 717 401 l 368 401 l 607 814 l 608 814 z "},"Ä":{"ha":1038,"x_min":0,"x_max":0,"o":"m 599 1160 l 456 1160 l 435 1022 l 578 1022 z m 860 1160 l 717 1160 l 696 1022 l 839 1022 z m 713 958 l 551 958 l -29 0 l 136 0 l 304 288 l 746 288 l 822 0 l 986 0 z m 717 401 l 368 401 l 607 814 l 608 814 z "},"Æ":{"ha":1474,"x_min":0,"x_max":0,"o":"m 1519 958 l 551 958 l -29 0 l 136 0 l 308 289 l 703 289 l 657 0 l 1382 0 l 1404 135 l 831 135 l 876 429 l 1388 429 l 1407 556 l 896 556 l 940 826 l 1500 826 z m 788 826 l 721 406 l 371 406 l 617 826 z "},"Ǽ":{"ha":1474,"x_min":0,"x_max":0,"o":"m 1192 1179 l 1010 1179 l 819 1011 l 965 1011 l 1192 1176 z m 1519 958 l 551 958 l -29 0 l 136 0 l 308 289 l 703 289 l 657 0 l 1382 0 l 1404 135 l 831 135 l 876 429 l 1388 429 l 1407 556 l 896 556 l 940 826 l 1500 826 z m 788 826 l 721 406 l 371 406 l 617 826 z "},"À":{"ha":1038,"x_min":0,"x_max":0,"o":"m 704 1011 l 567 1179 l 393 1179 l 393 1176 l 565 1011 z m 713 958 l 551 958 l -29 0 l 136 0 l 304 288 l 746 288 l 822 0 l 986 0 z m 717 401 l 368 401 l 607 814 l 608 814 z "},"Ā":{"ha":1038,"x_min":0,"x_max":0,"o":"m 903 1138 l 407 1138 l 390 1033 l 886 1033 z m 713 958 l 551 958 l -29 0 l 136 0 l 304 288 l 746 288 l 822 0 l 986 0 z m 717 401 l 368 401 l 607 814 l 608 814 z "},"Ą":{"ha":1038,"x_min":0,"x_max":0,"o":"m 949 -164 b 871 -181 938 -169 913 -181 b 810 -128 828 -181 810 -162 b 894 0 810 -72 858 -26 l 986 0 l 713 958 l 551 958 l -29 0 l 136 0 l 304 288 l 746 288 l 817 21 b 667 -183 771 -7 667 -75 b 814 -290 667 -257 715 -290 b 940 -265 879 -290 924 -272 z m 717 401 l 368 401 l 607 814 l 608 814 z "},"Å":{"ha":1038,"x_min":0,"x_max":0,"o":"m 799 1140 b 669 1244 799 1210 743 1244 b 508 1113 579 1244 508 1193 b 638 1010 508 1044 564 1010 b 799 1140 728 1010 799 1061 z m 724 1136 b 646 1079 724 1100 694 1079 b 583 1118 606 1079 583 1094 b 661 1175 583 1154 613 1175 b 724 1136 701 1175 724 1160 z m 713 958 l 551 958 l -29 0 l 136 0 l 304 288 l 746 288 l 822 0 l 986 0 z m 717 401 l 368 401 l 607 814 l 608 814 z "},"Ǻ":{"ha":1038,"x_min":0,"x_max":0,"o":"m 817 1282 l 519 1168 l 508 1110 l 803 1193 z m 782 1019 b 650 1111 782 1079 728 1111 b 485 993 558 1111 485 1069 b 528 919 485 960 501 935 l -29 0 l 136 0 l 304 288 l 746 288 l 822 0 l 986 0 l 722 924 b 782 1019 758 944 782 976 z m 708 1011 b 626 960 708 979 675 960 b 558 1000 585 960 558 976 b 640 1051 558 1032 592 1051 b 708 1011 682 1051 708 1036 z m 717 401 l 368 401 l 607 814 l 608 814 z "},"Ã":{"ha":1038,"x_min":0,"x_max":0,"o":"m 896 1163 l 818 1163 b 760 1103 813 1124 797 1103 b 546 1174 701 1103 631 1174 b 400 1021 456 1174 414 1119 l 476 1021 b 535 1081 482 1060 499 1081 b 749 1010 594 1081 665 1010 b 896 1163 840 1010 882 1064 z m 713 958 l 551 958 l -29 0 l 136 0 l 304 288 l 746 288 l 822 0 l 986 0 z m 717 401 l 368 401 l 607 814 l 608 814 z "},"B":{"ha":1003,"x_min":0,"x_max":0,"o":"m 971 736 b 657 958 971 878 885 958 l 217 958 l 65 0 l 503 0 b 954 279 815 0 954 106 b 758 493 954 410 869 472 l 758 496 b 971 736 856 510 971 588 z m 819 710 b 565 553 819 614 736 553 l 303 553 l 347 831 l 624 831 b 819 710 769 831 819 796 z m 804 292 b 507 131 804 182 721 131 l 238 131 l 285 432 l 557 432 b 804 292 729 432 804 376 z "},"C":{"ha":996,"x_min":0,"x_max":0,"o":"m 1050 885 b 714 975 1013 910 913 975 b 83 415 403 975 83 790 b 547 -17 83 125 267 -17 b 935 83 768 -17 882 47 l 897 204 b 582 119 847 174 753 119 b 236 421 354 119 236 222 b 719 842 236 704 465 842 b 997 757 886 842 965 781 z "},"Ć":{"ha":996,"x_min":0,"x_max":0,"o":"m 1003 1190 l 821 1190 l 631 1022 l 776 1022 l 1003 1188 z m 1050 885 b 714 975 1013 910 913 975 b 83 415 403 975 83 790 b 547 -17 83 125 267 -17 b 935 83 768 -17 882 47 l 897 204 b 582 119 847 174 753 119 b 236 421 354 119 236 222 b 719 842 236 704 465 842 b 997 757 886 842 965 781 z "},"Č":{"ha":996,"x_min":0,"x_max":0,"o":"m 954 1192 l 832 1192 l 714 1101 l 713 1101 l 625 1192 l 507 1192 l 626 1026 l 783 1026 z m 1050 885 b 714 975 1013 910 913 975 b 83 415 403 975 83 790 b 547 -17 83 125 267 -17 b 935 83 768 -17 882 47 l 897 204 b 582 119 847 174 753 119 b 236 421 354 119 236 222 b 719 842 236 704 465 842 b 997 757 886 842 965 781 z "},"Ç":{"ha":996,"x_min":0,"x_max":0,"o":"m 678 -161 b 546 -69 678 -99 625 -75 l 583 -17 b 935 83 781 -10 885 49 l 897 204 b 582 119 847 174 753 119 b 236 421 354 119 236 222 b 719 842 236 704 465 842 b 997 757 886 842 965 781 l 1050 885 b 714 975 1013 910 913 975 b 83 415 403 975 83 790 b 496 -15 83 143 244 1 l 417 -111 l 421 -118 b 565 -165 526 -118 565 -135 b 464 -215 565 -197 538 -215 b 363 -196 414 -215 375 -203 l 356 -268 b 478 -290 369 -275 413 -290 b 678 -161 613 -290 678 -231 z "},"Ĉ":{"ha":996,"x_min":0,"x_max":0,"o":"m 928 1022 l 808 1188 l 653 1188 l 481 1022 l 603 1022 l 721 1113 l 722 1113 l 810 1022 z m 1050 885 b 714 975 1013 910 913 975 b 83 415 403 975 83 790 b 547 -17 83 125 267 -17 b 935 83 768 -17 882 47 l 897 204 b 582 119 847 174 753 119 b 236 421 354 119 236 222 b 719 842 236 704 465 842 b 997 757 886 842 965 781 z "},"Ċ":{"ha":996,"x_min":0,"x_max":0,"o":"m 806 1183 l 653 1183 l 631 1039 l 782 1039 z m 1050 885 b 714 975 1013 910 913 975 b 83 415 403 975 83 790 b 547 -17 83 125 267 -17 b 935 83 768 -17 882 47 l 897 204 b 582 119 847 174 753 119 b 236 421 354 119 236 222 b 719 842 236 704 465 842 b 997 757 886 842 965 781 z "},"D":{"ha":1146,"x_min":0,"x_max":0,"o":"m 1135 554 b 586 958 1135 819 961 958 l 218 958 l 67 0 l 439 0 b 1135 554 896 0 1135 201 z m 982 542 b 461 135 982 274 803 135 l 240 135 l 349 828 l 588 828 b 982 542 849 828 982 731 z "},"Ď":{"ha":1146,"x_min":0,"x_max":0,"o":"m 893 1181 l 771 1181 l 653 1090 l 651 1090 l 564 1181 l 446 1181 l 565 1015 l 722 1015 z m 1135 554 b 586 958 1135 819 961 958 l 218 958 l 67 0 l 439 0 b 1135 554 896 0 1135 201 z m 982 542 b 461 135 982 274 803 135 l 240 135 l 349 828 l 588 828 b 982 542 849 828 982 731 z "},"Đ":{"ha":1186,"x_min":0,"x_max":0,"o":"m 1174 554 b 625 958 1174 819 1000 958 l 257 958 l 192 549 l 74 549 l 53 421 l 172 421 l 106 0 l 478 0 b 1174 554 935 0 1174 201 z m 664 549 l 344 549 l 388 828 l 626 828 b 1021 542 888 828 1021 731 b 500 135 1021 274 842 135 l 279 135 l 324 421 l 643 421 z "},"Ð":{"ha":1186,"x_min":0,"x_max":0,"o":"m 1174 554 b 625 958 1174 819 1000 958 l 257 958 l 192 549 l 74 549 l 53 421 l 172 421 l 106 0 l 478 0 b 1174 554 935 0 1174 201 z m 664 549 l 344 549 l 388 828 l 626 828 b 1021 542 888 828 1021 731 b 500 135 1021 274 842 135 l 279 135 l 324 421 l 643 421 z "},"E":{"ha":883,"x_min":0,"x_max":0,"o":"m 929 958 l 218 958 l 67 0 l 792 0 l 814 135 l 239 135 l 286 429 l 794 429 l 815 556 l 306 556 l 349 826 l 910 826 z "},"É":{"ha":883,"x_min":0,"x_max":0,"o":"m 881 1179 l 699 1179 l 508 1011 l 654 1011 l 881 1176 z m 929 958 l 218 958 l 67 0 l 792 0 l 814 135 l 239 135 l 286 429 l 794 429 l 815 556 l 306 556 l 349 826 l 910 826 z "},"Ĕ":{"ha":883,"x_min":0,"x_max":0,"o":"m 806 1175 l 706 1175 b 596 1103 694 1132 661 1103 b 507 1167 531 1103 507 1128 l 507 1175 l 410 1175 b 408 1151 408 1168 408 1160 b 583 1010 408 1071 460 1010 b 806 1175 719 1010 786 1086 z m 929 958 l 218 958 l 67 0 l 792 0 l 814 135 l 239 135 l 286 429 l 794 429 l 815 556 l 306 556 l 349 826 l 910 826 z "},"Ě":{"ha":883,"x_min":0,"x_max":0,"o":"m 832 1181 l 710 1181 l 592 1090 l 590 1090 l 503 1181 l 385 1181 l 504 1015 l 661 1015 z m 929 958 l 218 958 l 67 0 l 792 0 l 814 135 l 239 135 l 286 429 l 794 429 l 815 556 l 306 556 l 349 826 l 910 826 z "},"Ê":{"ha":883,"x_min":0,"x_max":0,"o":"m 806 1011 l 686 1176 l 531 1176 l 358 1011 l 481 1011 l 599 1101 l 600 1101 l 688 1011 z m 929 958 l 218 958 l 67 0 l 792 0 l 814 135 l 239 135 l 286 429 l 794 429 l 815 556 l 306 556 l 349 826 l 910 826 z "},"Ë":{"ha":883,"x_min":0,"x_max":0,"o":"m 544 1160 l 401 1160 l 381 1022 l 524 1022 z m 806 1160 l 663 1160 l 642 1022 l 785 1022 z m 929 958 l 218 958 l 67 0 l 792 0 l 814 135 l 239 135 l 286 429 l 794 429 l 815 556 l 306 556 l 349 826 l 910 826 z "},"Ė":{"ha":883,"x_min":0,"x_max":0,"o":"m 683 1172 l 531 1172 l 508 1028 l 660 1028 z m 929 958 l 218 958 l 67 0 l 792 0 l 814 135 l 239 135 l 286 429 l 794 429 l 815 556 l 306 556 l 349 826 l 910 826 z "},"È":{"ha":883,"x_min":0,"x_max":0,"o":"m 650 1011 l 513 1179 l 339 1179 l 339 1176 l 511 1011 z m 929 958 l 218 958 l 67 0 l 792 0 l 814 135 l 239 135 l 286 429 l 794 429 l 815 556 l 306 556 l 349 826 l 910 826 z "},"Ē":{"ha":883,"x_min":0,"x_max":0,"o":"m 849 1138 l 353 1138 l 336 1033 l 832 1033 z m 929 958 l 218 958 l 67 0 l 792 0 l 814 135 l 239 135 l 286 429 l 794 429 l 815 556 l 306 556 l 349 826 l 910 826 z "},"Ę":{"ha":883,"x_min":0,"x_max":0,"o":"m 732 -164 b 654 -181 721 -169 696 -181 b 593 -128 611 -181 593 -162 b 678 0 593 -72 642 -26 l 792 0 l 814 135 l 239 135 l 286 429 l 794 429 l 815 556 l 306 556 l 349 826 l 910 826 l 929 958 l 218 958 l 67 0 l 568 0 b 450 -183 518 -35 450 -96 b 597 -290 450 -257 499 -290 b 724 -265 663 -290 707 -272 z "},"Ə":{"ha":1097,"x_min":0,"x_max":0,"o":"m 1085 563 b 639 975 1085 814 946 975 b 200 856 407 975 256 894 l 250 739 b 625 842 304 774 428 842 b 933 549 835 842 933 732 b 933 529 933 542 933 536 l 122 529 b 104 368 115 504 104 436 b 517 -17 104 121 242 -17 b 1085 563 881 -17 1085 208 z m 532 118 b 250 353 342 118 250 201 b 254 410 250 378 251 394 l 919 410 b 532 118 878 217 743 118 z "},"F":{"ha":839,"x_min":0,"x_max":0,"o":"m 929 958 l 218 958 l 67 0 l 218 0 l 275 360 l 786 360 l 807 490 l 296 490 l 350 826 l 910 826 z "},"G":{"ha":1079,"x_min":0,"x_max":0,"o":"m 1029 521 l 672 521 l 653 396 l 869 396 l 831 156 b 596 119 779 138 700 119 b 238 426 368 119 238 218 b 722 842 238 715 475 842 b 1021 756 883 842 974 788 l 1076 883 b 725 975 1024 918 926 975 b 85 415 404 975 85 797 b 560 -17 85 125 275 -17 b 960 78 781 -17 907 44 z "},"Ğ":{"ha":1079,"x_min":0,"x_max":0,"o":"m 936 1176 l 836 1176 b 726 1104 825 1133 792 1104 b 638 1168 661 1104 638 1129 l 638 1176 l 540 1176 b 539 1153 539 1169 539 1161 b 714 1011 539 1072 590 1011 b 936 1176 850 1011 917 1088 z m 1029 521 l 672 521 l 653 396 l 869 396 l 831 156 b 596 119 779 138 700 119 b 238 426 368 119 238 218 b 722 842 238 715 475 842 b 1021 756 883 842 974 788 l 1076 883 b 725 975 1024 918 926 975 b 85 415 404 975 85 797 b 560 -17 85 125 275 -17 b 960 78 781 -17 907 44 z "},"Ĝ":{"ha":1079,"x_min":0,"x_max":0,"o":"m 936 1013 l 817 1178 l 661 1178 l 489 1013 l 611 1013 l 729 1103 l 731 1103 l 818 1013 z m 1029 521 l 672 521 l 653 396 l 869 396 l 831 156 b 596 119 779 138 700 119 b 238 426 368 119 238 218 b 722 842 238 715 475 842 b 1021 756 883 842 974 788 l 1076 883 b 725 975 1024 918 926 975 b 85 415 404 975 85 797 b 560 -17 85 125 275 -17 b 960 78 781 -17 907 44 z "},"Ģ":{"ha":1079,"x_min":0,"x_max":0,"o":"m 1029 521 l 672 521 l 653 396 l 869 396 l 831 156 b 596 119 779 138 700 119 b 238 426 368 119 238 218 b 722 842 238 715 475 842 b 1021 756 883 842 974 788 l 1076 883 b 725 975 1024 918 926 975 b 85 415 404 975 85 797 b 560 -17 85 125 275 -17 b 960 78 781 -17 907 44 z m 617 -65 l 479 -65 l 461 -185 l 510 -185 b 393 -272 499 -253 451 -271 l 397 -324 b 604 -144 524 -324 582 -278 z "},"Ġ":{"ha":1079,"x_min":0,"x_max":0,"o":"m 814 1174 l 661 1174 l 639 1029 l 790 1029 z m 1029 521 l 672 521 l 653 396 l 869 396 l 831 156 b 596 119 779 138 700 119 b 238 426 368 119 238 218 b 722 842 238 715 475 842 b 1021 756 883 842 974 788 l 1076 883 b 725 975 1024 918 926 975 b 85 415 404 975 85 797 b 560 -17 85 125 275 -17 b 960 78 781 -17 907 44 z "},"H":{"ha":1121,"x_min":0,"x_max":0,"o":"m 1126 958 l 975 958 l 911 556 l 306 556 l 369 958 l 218 958 l 67 0 l 218 0 l 286 425 l 892 425 l 824 0 l 975 0 z "},"Ħ":{"ha":1181,"x_min":0,"x_max":0,"o":"m 1240 813 l 1131 813 l 1154 958 l 1003 958 l 979 813 l 374 813 l 397 958 l 246 958 l 222 813 l 117 813 l 104 726 l 210 726 l 94 0 l 246 0 l 314 425 l 919 425 l 851 0 l 1003 0 l 1118 726 l 1228 726 z m 333 556 l 361 726 l 967 726 l 939 556 z "},"Ĥ":{"ha":1121,"x_min":0,"x_max":0,"o":"m 899 1011 l 779 1176 l 624 1176 l 451 1011 l 574 1011 l 692 1101 l 693 1101 l 781 1011 z m 1126 958 l 975 958 l 911 556 l 306 556 l 369 958 l 218 958 l 67 0 l 218 0 l 286 425 l 892 425 l 824 0 l 975 0 z "},"I":{"ha":389,"x_min":0,"x_max":0,"o":"m 381 958 l 231 958 l 79 0 l 229 0 z "},"Í":{"ha":389,"x_min":0,"x_max":0,"o":"m 613 1179 l 431 1179 l 240 1011 l 386 1011 l 613 1176 z m 381 958 l 231 958 l 79 0 l 229 0 z "},"Ĭ":{"ha":389,"x_min":0,"x_max":0,"o":"m 539 1175 l 439 1175 b 329 1103 428 1132 394 1103 b 240 1167 264 1103 240 1128 l 240 1175 l 143 1175 b 142 1151 142 1168 142 1160 b 317 1010 142 1071 193 1010 b 539 1175 453 1010 519 1086 z m 381 958 l 231 958 l 79 0 l 229 0 z "},"Î":{"ha":389,"x_min":0,"x_max":0,"o":"m 538 1011 l 418 1176 l 263 1176 l 90 1011 l 213 1011 l 331 1101 l 332 1101 l 419 1011 z m 381 958 l 231 958 l 79 0 l 229 0 z "},"Ï":{"ha":389,"x_min":0,"x_max":0,"o":"m 276 1160 l 133 1160 l 113 1022 l 256 1022 z m 538 1160 l 394 1160 l 374 1022 l 517 1022 z m 381 958 l 231 958 l 79 0 l 229 0 z "},"İ":{"ha":389,"x_min":0,"x_max":0,"o":"m 417 1172 l 264 1172 l 242 1028 l 393 1028 z m 381 958 l 231 958 l 79 0 l 229 0 z "},"Ì":{"ha":389,"x_min":0,"x_max":0,"o":"m 383 1011 l 246 1179 l 72 1179 l 72 1176 l 244 1011 z m 381 958 l 231 958 l 79 0 l 229 0 z "},"Ĳ":{"ha":1119,"x_min":0,"x_max":0,"o":"m 381 958 l 231 958 l 79 0 l 229 0 z m 1131 958 l 560 958 l 540 828 l 957 828 l 888 394 b 590 119 853 186 769 119 b 443 164 515 119 465 150 l 410 29 b 596 -17 432 15 497 -17 b 1039 382 850 -17 992 82 z "},"Ī":{"ha":389,"x_min":0,"x_max":0,"o":"m 582 1138 l 86 1138 l 69 1033 l 565 1033 z m 381 958 l 231 958 l 79 0 l 229 0 z "},"Į":{"ha":389,"x_min":0,"x_max":0,"o":"m 213 -164 b 135 -181 201 -169 176 -181 b 74 -128 92 -181 74 -162 b 158 0 74 -72 122 -26 l 229 0 l 381 958 l 231 958 l 83 22 b -69 -183 39 -4 -69 -74 b 78 -290 -69 -257 -21 -290 b 204 -265 143 -290 188 -272 z "},"Ĩ":{"ha":389,"x_min":0,"x_max":0,"o":"m 574 1163 l 496 1163 b 438 1103 490 1124 475 1103 b 224 1174 379 1103 308 1174 b 78 1021 133 1174 92 1119 l 154 1021 b 213 1081 160 1060 176 1081 b 426 1010 272 1081 343 1010 b 574 1163 518 1010 560 1064 z m 381 958 l 231 958 l 79 0 l 229 0 z "},"J":{"ha":731,"x_min":0,"x_max":0,"o":"m 742 958 l 171 958 l 151 828 l 568 828 l 499 394 b 201 119 464 186 381 119 b 54 164 126 119 76 150 l 21 29 b 207 -17 43 15 108 -17 b 650 382 461 -17 603 82 z "},"Ĵ":{"ha":731,"x_min":0,"x_max":0,"o":"m 686 1011 l 567 1176 l 411 1176 l 239 1011 l 361 1011 l 479 1101 l 481 1101 l 568 1011 z m 742 958 l 171 958 l 151 828 l 568 828 l 499 394 b 201 119 464 186 381 119 b 54 164 126 119 76 150 l 21 29 b 207 -17 43 15 108 -17 b 650 382 461 -17 603 82 z "},"K":{"ha":1042,"x_min":0,"x_max":0,"o":"m 989 0 l 568 486 l 1118 958 l 913 958 l 439 549 l 303 549 l 368 958 l 218 958 l 67 0 l 217 0 l 283 419 l 436 419 l 786 0 z "},"Ķ":{"ha":1042,"x_min":0,"x_max":0,"o":"m 989 0 l 568 486 l 1118 958 l 913 958 l 439 549 l 303 549 l 368 958 l 218 958 l 67 0 l 217 0 l 283 419 l 436 419 l 786 0 z m 519 -44 l 382 -44 l 364 -164 l 413 -164 b 296 -251 401 -232 354 -250 l 300 -303 b 507 -124 426 -303 485 -257 z "},"L":{"ha":849,"x_min":0,"x_max":0,"o":"m 369 958 l 218 958 l 67 0 l 793 0 l 815 135 l 240 135 z "},"Ĺ":{"ha":849,"x_min":0,"x_max":0,"o":"m 600 1179 l 418 1179 l 228 1011 l 374 1011 l 600 1176 z m 369 958 l 218 958 l 67 0 l 793 0 l 815 135 l 240 135 z "},"Ľ":{"ha":849,"x_min":0,"x_max":0,"o":"m 369 958 l 218 958 l 67 0 l 793 0 l 815 135 l 240 135 z m 776 958 l 615 958 l 497 751 l 619 751 l 776 956 z "},"Ļ":{"ha":849,"x_min":0,"x_max":0,"o":"m 369 958 l 218 958 l 67 0 l 793 0 l 815 135 l 240 135 z m 488 -65 l 350 -65 l 332 -185 l 381 -185 b 264 -272 369 -253 322 -271 l 268 -324 b 475 -144 394 -324 453 -278 z "},"Ŀ":{"ha":849,"x_min":0,"x_max":0,"o":"m 369 958 l 218 958 l 67 0 l 793 0 l 815 135 l 240 135 z m 693 624 l 546 624 l 522 471 l 668 471 z "},"Ł":{"ha":878,"x_min":0,"x_max":0,"o":"m 685 711 l 328 519 l 397 958 l 246 958 l 163 429 l 43 365 l 26 264 l 146 328 l 94 0 l 821 0 l 843 135 l 268 135 l 313 417 l 669 608 z "},"M":{"ha":1386,"x_min":0,"x_max":0,"o":"m 1392 958 l 1208 958 l 678 174 l 675 174 l 396 958 l 218 958 l 67 0 l 213 0 l 325 700 l 326 700 l 583 0 l 721 0 l 1201 700 l 1204 700 l 1092 0 l 1240 0 z "},"N":{"ha":1119,"x_min":0,"x_max":0,"o":"m 1125 958 l 976 958 l 861 229 l 858 229 l 361 958 l 218 958 l 67 0 l 215 0 l 332 728 l 335 728 l 832 0 l 972 0 z "},"Ń":{"ha":1119,"x_min":0,"x_max":0,"o":"m 979 1179 l 797 1179 l 607 1011 l 753 1011 l 979 1176 z m 1125 958 l 976 958 l 861 229 l 858 229 l 361 958 l 218 958 l 67 0 l 215 0 l 332 728 l 335 728 l 832 0 l 972 0 z "},"Ň":{"ha":1119,"x_min":0,"x_max":0,"o":"m 931 1181 l 808 1181 l 690 1090 l 689 1090 l 601 1181 l 483 1181 l 603 1015 l 760 1015 z m 1125 958 l 976 958 l 861 229 l 858 229 l 361 958 l 218 958 l 67 0 l 215 0 l 332 728 l 335 728 l 832 0 l 972 0 z "},"Ņ":{"ha":1119,"x_min":0,"x_max":0,"o":"m 1125 958 l 976 958 l 861 229 l 858 229 l 361 958 l 218 958 l 67 0 l 215 0 l 332 728 l 335 728 l 832 0 l 972 0 z m 581 -44 l 443 -44 l 425 -164 l 474 -164 b 357 -251 463 -232 415 -250 l 361 -303 b 568 -124 488 -303 546 -257 z "},"Ñ":{"ha":1119,"x_min":0,"x_max":0,"o":"m 940 1163 l 863 1163 b 804 1103 857 1124 842 1103 b 590 1174 746 1103 675 1174 b 444 1021 500 1174 458 1119 l 521 1021 b 579 1081 526 1060 543 1081 b 793 1010 639 1081 710 1010 b 940 1163 885 1010 926 1064 z m 1125 958 l 976 958 l 861 229 l 858 229 l 361 958 l 218 958 l 67 0 l 215 0 l 332 728 l 335 728 l 832 0 l 972 0 z "},"Ŋ":{"ha":1119,"x_min":0,"x_max":0,"o":"m 1125 958 l 976 958 l 861 229 l 858 229 l 360 958 l 218 958 l 67 0 l 215 0 l 332 728 l 335 728 l 819 19 b 621 -94 785 -61 724 -94 b 517 -72 563 -94 532 -81 l 496 -196 b 633 -221 511 -203 557 -221 b 994 135 831 -221 954 -124 z "},"O":{"ha":1168,"x_min":0,"x_max":0,"o":"m 1154 538 b 690 975 1154 815 986 975 b 86 421 357 975 86 769 b 549 -17 86 143 253 -17 b 1154 538 882 -17 1154 189 z m 1001 538 b 567 119 1001 282 813 119 b 239 424 350 119 239 233 b 676 842 239 681 429 842 b 1001 538 892 842 1001 729 z "},"Ò":{"ha":1168,"x_min":0,"x_max":0,"o":"m 761 1022 l 624 1190 l 450 1190 l 450 1188 l 622 1022 z m 1154 538 b 690 975 1154 815 986 975 b 86 421 357 975 86 769 b 549 -17 86 143 253 -17 b 1154 538 882 -17 1154 189 z m 1001 538 b 567 119 1001 282 813 119 b 239 424 350 119 239 233 b 676 842 239 681 429 842 b 1001 538 892 842 1001 729 z "},"Ó":{"ha":1168,"x_min":0,"x_max":0,"o":"m 992 1190 l 810 1190 l 619 1022 l 765 1022 l 992 1188 z m 1154 538 b 690 975 1154 815 986 975 b 86 421 357 975 86 769 b 549 -17 86 143 253 -17 b 1154 538 882 -17 1154 189 z m 1001 538 b 567 119 1001 282 813 119 b 239 424 350 119 239 233 b 676 842 239 681 429 842 b 1001 538 892 842 1001 729 z "},"Ŏ":{"ha":1168,"x_min":0,"x_max":0,"o":"m 917 1186 l 817 1186 b 707 1114 806 1143 772 1114 b 618 1178 642 1114 618 1139 l 618 1186 l 521 1186 b 519 1163 519 1179 519 1171 b 694 1021 519 1082 571 1021 b 917 1186 831 1021 897 1097 z m 1154 538 b 690 975 1154 815 986 975 b 86 421 357 975 86 769 b 549 -17 86 143 253 -17 b 1154 538 882 -17 1154 189 z m 1001 538 b 567 119 1001 282 813 119 b 239 424 350 119 239 233 b 676 842 239 681 429 842 b 1001 538 892 842 1001 729 z "},"Ô":{"ha":1168,"x_min":0,"x_max":0,"o":"m 917 1022 l 797 1188 l 642 1188 l 469 1022 l 592 1022 l 710 1113 l 711 1113 l 799 1022 z m 1154 538 b 690 975 1154 815 986 975 b 86 421 357 975 86 769 b 549 -17 86 143 253 -17 b 1154 538 882 -17 1154 189 z m 1001 538 b 567 119 1001 282 813 119 b 239 424 350 119 239 233 b 676 842 239 681 429 842 b 1001 538 892 842 1001 729 z "},"Ö":{"ha":1168,"x_min":0,"x_max":0,"o":"m 656 1171 l 513 1171 l 492 1033 l 635 1033 z m 917 1171 l 774 1171 l 753 1033 l 896 1033 z m 1154 538 b 690 975 1154 815 986 975 b 86 421 357 975 86 769 b 549 -17 86 143 253 -17 b 1154 538 882 -17 1154 189 z m 1001 538 b 567 119 1001 282 813 119 b 239 424 350 119 239 233 b 676 842 239 681 429 842 b 1001 538 892 842 1001 729 z "},"Œ":{"ha":1639,"x_min":0,"x_max":0,"o":"m 86 428 b 606 -17 86 122 272 -17 b 835 0 721 -17 803 -6 l 1546 0 l 1568 135 l 993 135 l 1040 429 l 1549 429 l 1569 556 l 1060 556 l 1103 826 l 1664 826 l 1683 958 l 982 958 b 757 975 956 963 875 975 b 86 428 371 975 86 776 z m 240 425 b 749 842 240 701 451 842 b 951 824 847 842 917 832 l 842 135 b 625 117 804 128 722 117 b 240 425 382 117 240 214 z "},"Ő":{"ha":1168,"x_min":0,"x_max":0,"o":"m 825 1189 l 692 1189 l 540 1022 l 649 1022 l 825 1186 z m 1039 1189 l 906 1189 l 754 1022 l 863 1022 l 1039 1186 z m 1154 538 b 690 975 1154 815 986 975 b 86 421 357 975 86 769 b 549 -17 86 143 253 -17 b 1154 538 882 -17 1154 189 z m 1001 538 b 567 119 1001 282 813 119 b 239 424 350 119 239 233 b 676 842 239 681 429 842 b 1001 538 892 842 1001 729 z "},"Ō":{"ha":1168,"x_min":0,"x_max":0,"o":"m 960 1149 l 464 1149 l 447 1044 l 943 1044 z m 1154 538 b 690 975 1154 815 986 975 b 86 421 357 975 86 769 b 549 -17 86 143 253 -17 b 1154 538 882 -17 1154 189 z m 1001 538 b 567 119 1001 282 813 119 b 239 424 350 119 239 233 b 676 842 239 681 429 842 b 1001 538 892 842 1001 729 z "},"Ø":{"ha":1168,"x_min":0,"x_max":0,"o":"m 1154 538 b 1042 853 1154 671 1115 778 l 1161 975 l 1043 975 l 975 906 b 692 975 901 951 806 975 b 86 421 358 975 86 768 b 199 106 86 286 125 181 l 79 -17 l 199 -17 l 265 53 b 547 -17 339 7 433 -17 b 1154 538 881 -17 1154 190 z m 239 424 b 676 842 239 679 431 842 b 871 799 756 842 821 826 l 306 217 b 239 424 261 268 239 338 z m 1003 538 b 567 119 1003 282 813 119 b 372 163 489 119 424 135 l 938 744 b 1003 538 981 693 1003 624 z "},"Ǿ":{"ha":1168,"x_min":0,"x_max":0,"o":"m 992 1186 l 810 1186 l 619 1018 l 765 1018 l 992 1183 z m 1154 538 b 1042 853 1154 671 1115 778 l 1161 975 l 1043 975 l 975 906 b 692 975 901 951 806 975 b 86 421 358 975 86 768 b 199 106 86 286 125 181 l 79 -17 l 199 -17 l 265 53 b 547 -17 339 7 433 -17 b 1154 538 881 -17 1154 190 z m 239 424 b 676 842 239 679 431 842 b 871 799 756 842 821 826 l 306 217 b 239 424 261 268 239 338 z m 1003 538 b 567 119 1003 282 813 119 b 372 163 489 119 424 135 l 938 744 b 1003 538 981 693 1003 624 z "},"Õ":{"ha":1168,"x_min":0,"x_max":0,"o":"m 953 1174 l 875 1174 b 817 1114 869 1135 854 1114 b 603 1185 758 1114 688 1185 b 457 1032 513 1185 471 1131 l 533 1032 b 592 1092 539 1071 556 1092 b 806 1021 651 1092 722 1021 b 953 1174 897 1021 939 1075 z m 1154 538 b 690 975 1154 815 986 975 b 86 421 357 975 86 769 b 549 -17 86 143 253 -17 b 1154 538 882 -17 1154 189 z m 1001 538 b 567 119 1001 282 813 119 b 239 424 350 119 239 233 b 676 842 239 681 429 842 b 1001 538 892 842 1001 729 z "},"P":{"ha":949,"x_min":0,"x_max":0,"o":"m 982 679 b 578 958 982 865 853 958 l 218 958 l 67 0 l 218 0 l 268 319 l 493 319 b 982 679 817 319 982 457 z m 829 664 b 493 446 829 518 718 446 l 288 446 l 349 828 l 554 828 b 829 664 744 828 829 774 z "},"Þ":{"ha":951,"x_min":0,"x_max":0,"o":"m 963 556 b 558 833 963 740 833 833 l 350 833 l 369 958 l 218 958 l 67 0 l 218 0 l 249 193 l 474 193 b 963 556 797 193 963 332 z m 811 544 b 474 319 811 393 700 319 l 268 319 l 329 703 l 535 703 b 811 544 725 703 811 650 z "},"Q":{"ha":1168,"x_min":0,"x_max":0,"o":"m 1035 -118 l 915 85 b 1154 538 1060 178 1154 333 b 690 975 1154 815 985 975 b 86 421 357 975 86 768 b 549 -17 86 143 253 -17 b 781 19 631 -17 708 -4 l 897 -186 z m 1001 538 b 567 119 1001 282 813 119 b 239 424 351 119 239 232 b 676 842 239 679 431 842 b 1001 538 892 842 1001 729 z "},"R":{"ha":992,"x_min":0,"x_max":0,"o":"m 908 0 l 694 367 b 985 693 869 408 985 513 b 585 958 985 867 854 958 l 218 958 l 67 0 l 218 0 l 274 344 l 488 344 b 538 346 504 344 521 344 l 729 0 z m 832 681 b 499 471 832 543 719 471 l 292 471 l 349 826 l 563 826 b 832 681 749 826 832 778 z "},"Ŕ":{"ha":992,"x_min":0,"x_max":0,"o":"m 883 1179 l 701 1179 l 511 1011 l 657 1011 l 883 1176 z m 908 0 l 694 367 b 985 693 869 408 985 513 b 585 958 985 867 854 958 l 218 958 l 67 0 l 218 0 l 274 344 l 488 344 b 538 346 504 344 521 344 l 729 0 z m 832 681 b 499 471 832 543 719 471 l 292 471 l 349 826 l 563 826 b 832 681 749 826 832 778 z "},"Ř":{"ha":992,"x_min":0,"x_max":0,"o":"m 836 1181 l 714 1181 l 596 1090 l 594 1090 l 507 1181 l 389 1181 l 508 1015 l 665 1015 z m 908 0 l 694 367 b 985 693 869 408 985 513 b 585 958 985 867 854 958 l 218 958 l 67 0 l 218 0 l 274 344 l 488 344 b 538 346 504 344 521 344 l 729 0 z m 832 681 b 499 471 832 543 719 471 l 292 471 l 349 826 l 563 826 b 832 681 749 826 832 778 z "},"Ŗ":{"ha":992,"x_min":0,"x_max":0,"o":"m 908 0 l 694 367 b 985 693 869 408 985 513 b 585 958 985 867 854 958 l 218 958 l 67 0 l 218 0 l 274 344 l 488 344 b 538 346 504 344 521 344 l 729 0 z m 832 681 b 499 471 832 543 719 471 l 292 471 l 349 826 l 563 826 b 832 681 749 826 832 778 z m 518 -44 l 381 -44 l 363 -164 l 411 -164 b 294 -251 400 -232 353 -250 l 299 -303 b 506 -124 425 -303 483 -257 z "},"S":{"ha":872,"x_min":0,"x_max":0,"o":"m 882 896 b 547 975 836 922 742 975 b 149 701 299 975 149 867 b 440 426 149 543 261 489 b 667 256 618 365 665 332 b 399 117 668 171 576 117 b 81 211 222 117 125 179 l 29 81 b 401 -17 81 44 189 -17 b 818 272 676 -17 818 107 b 525 550 818 418 704 489 b 296 718 346 611 296 628 b 536 846 296 807 396 846 b 832 765 697 846 786 794 z "},"Ś":{"ha":872,"x_min":0,"x_max":0,"o":"m 864 1190 l 682 1190 l 492 1022 l 638 1022 l 864 1188 z m 882 896 b 547 975 836 922 742 975 b 149 701 299 975 149 867 b 440 426 149 543 261 489 b 667 256 618 365 665 332 b 399 117 668 171 576 117 b 81 211 222 117 125 179 l 29 81 b 401 -17 81 44 189 -17 b 818 272 676 -17 818 107 b 525 550 818 418 704 489 b 296 718 346 611 296 628 b 536 846 296 807 396 846 b 832 765 697 846 786 794 z "},"Š":{"ha":872,"x_min":0,"x_max":0,"o":"m 815 1192 l 693 1192 l 575 1101 l 574 1101 l 486 1192 l 368 1192 l 488 1026 l 644 1026 z m 882 896 b 547 975 836 922 742 975 b 149 701 299 975 149 867 b 440 426 149 543 261 489 b 667 256 618 365 665 332 b 399 117 668 171 576 117 b 81 211 222 117 125 179 l 29 81 b 401 -17 81 44 189 -17 b 818 272 676 -17 818 107 b 525 550 818 418 704 489 b 296 718 346 611 296 628 b 536 846 296 807 396 846 b 832 765 697 846 786 794 z "},"Ş":{"ha":872,"x_min":0,"x_max":0,"o":"m 526 -161 b 394 -69 526 -99 474 -75 l 432 -17 b 818 272 688 -7 818 114 b 525 550 818 418 704 489 b 296 718 346 611 296 628 b 536 846 296 807 396 846 b 832 765 697 846 786 794 l 882 896 b 547 975 836 922 742 975 b 149 701 299 975 149 867 b 440 426 149 543 261 489 b 667 256 618 365 665 332 b 399 117 668 171 576 117 b 81 211 222 117 125 179 l 29 81 b 344 -15 75 47 169 -6 l 265 -111 l 269 -118 b 414 -165 375 -118 414 -135 b 313 -215 414 -197 386 -215 b 211 -196 263 -215 224 -203 l 204 -268 b 326 -290 218 -275 261 -290 b 526 -161 461 -290 526 -231 z "},"Ŝ":{"ha":872,"x_min":0,"x_max":0,"o":"m 789 1022 l 669 1188 l 514 1188 l 342 1022 l 464 1022 l 582 1113 l 583 1113 l 671 1022 z m 882 896 b 547 975 836 922 742 975 b 149 701 299 975 149 867 b 440 426 149 543 261 489 b 667 256 618 365 665 332 b 399 117 668 171 576 117 b 81 211 222 117 125 179 l 29 81 b 401 -17 81 44 189 -17 b 818 272 676 -17 818 107 b 525 550 818 418 704 489 b 296 718 346 611 296 628 b 536 846 296 807 396 846 b 832 765 697 846 786 794 z "},"Ș":{"ha":872,"x_min":0,"x_max":0,"o":"m 882 896 b 547 975 836 922 742 975 b 149 701 299 975 149 867 b 440 426 149 543 261 489 b 667 256 618 365 665 332 b 399 117 668 171 576 117 b 81 211 222 117 125 179 l 29 81 b 401 -17 81 44 189 -17 b 818 272 676 -17 818 107 b 525 550 818 418 704 489 b 296 718 346 611 296 628 b 536 846 296 807 396 846 b 832 765 697 846 786 794 z m 464 -65 l 326 -65 l 308 -185 l 357 -185 b 240 -272 346 -253 299 -271 l 244 -324 b 451 -144 371 -324 429 -278 z "},"ẞ":{"ha":1097,"x_min":0,"x_max":0,"o":"m 1078 958 l 639 958 b 153 546 339 958 199 840 l 65 0 l 218 0 l 304 546 b 622 831 335 739 418 831 l 850 831 l 850 828 l 579 551 l 567 451 l 608 451 b 894 281 807 451 894 385 b 658 117 894 176 801 117 b 413 190 515 117 450 165 l 367 53 b 663 -17 408 32 476 -17 b 1044 281 889 -17 1044 97 b 768 560 1044 433 957 531 l 1061 857 z "},"T":{"ha":996,"x_min":0,"x_max":0,"o":"m 1093 958 l 128 958 l 107 828 l 513 828 l 382 0 l 533 0 l 665 828 l 1072 828 z "},"Ŧ":{"ha":996,"x_min":0,"x_max":0,"o":"m 849 507 l 614 507 l 665 828 l 1072 828 l 1093 958 l 128 958 l 107 828 l 513 828 l 463 507 l 228 507 l 214 421 l 449 421 l 382 0 l 533 0 l 600 421 l 835 421 z "},"Ť":{"ha":996,"x_min":0,"x_max":0,"o":"m 865 1181 l 743 1181 l 625 1090 l 624 1090 l 536 1181 l 418 1181 l 538 1015 l 694 1015 z m 1093 958 l 128 958 l 107 828 l 513 828 l 382 0 l 533 0 l 665 828 l 1072 828 z "},"Ţ":{"ha":996,"x_min":0,"x_max":0,"o":"m 1093 958 l 128 958 l 107 828 l 513 828 l 382 0 l 533 0 l 665 828 l 1072 828 z m 517 -65 l 379 -65 l 361 -185 l 410 -185 b 293 -272 399 -253 351 -271 l 297 -324 b 504 -144 424 -324 482 -278 z "},"Ț":{"ha":996,"x_min":0,"x_max":0,"o":"m 1093 958 l 128 958 l 107 828 l 513 828 l 382 0 l 533 0 l 665 828 l 1072 828 z m 517 -65 l 379 -65 l 361 -185 l 410 -185 b 293 -272 399 -253 351 -271 l 297 -324 b 504 -144 424 -324 482 -278 z "},"U":{"ha":1119,"x_min":0,"x_max":0,"o":"m 1133 958 l 988 958 l 911 471 b 540 119 874 239 763 119 b 275 364 365 119 275 193 b 288 490 275 399 281 451 l 361 958 l 208 958 l 135 490 b 124 340 126 439 124 385 b 517 -17 124 97 272 -17 b 1056 471 843 -17 1006 157 z "},"Ú":{"ha":1119,"x_min":0,"x_max":0,"o":"m 971 1179 l 789 1179 l 599 1011 l 744 1011 l 971 1176 z m 1133 958 l 988 958 l 911 471 b 540 119 874 239 763 119 b 275 364 365 119 275 193 b 288 490 275 399 281 451 l 361 958 l 208 958 l 135 490 b 124 340 126 439 124 385 b 517 -17 124 97 272 -17 b 1056 471 843 -17 1006 157 z "},"Ŭ":{"ha":1119,"x_min":0,"x_max":0,"o":"m 896 1175 l 796 1175 b 686 1103 785 1132 751 1103 b 597 1167 621 1103 597 1128 l 597 1175 l 500 1175 b 499 1151 499 1168 499 1160 b 674 1010 499 1071 550 1010 b 896 1175 810 1010 876 1086 z m 1133 958 l 988 958 l 911 471 b 540 119 874 239 763 119 b 275 364 365 119 275 193 b 288 490 275 399 281 451 l 361 958 l 208 958 l 135 490 b 124 340 126 439 124 385 b 517 -17 124 97 272 -17 b 1056 471 843 -17 1006 157 z "},"Û":{"ha":1119,"x_min":0,"x_max":0,"o":"m 896 1011 l 776 1176 l 621 1176 l 449 1011 l 571 1011 l 689 1101 l 690 1101 l 778 1011 z m 1133 958 l 988 958 l 911 471 b 540 119 874 239 763 119 b 275 364 365 119 275 193 b 288 490 275 399 281 451 l 361 958 l 208 958 l 135 490 b 124 340 126 439 124 385 b 517 -17 124 97 272 -17 b 1056 471 843 -17 1006 157 z "},"Ü":{"ha":1119,"x_min":0,"x_max":0,"o":"m 635 1160 l 492 1160 l 471 1022 l 614 1022 z m 896 1160 l 753 1160 l 732 1022 l 875 1022 z m 1133 958 l 988 958 l 911 471 b 540 119 874 239 763 119 b 275 364 365 119 275 193 b 288 490 275 399 281 451 l 361 958 l 208 958 l 135 490 b 124 340 126 439 124 385 b 517 -17 124 97 272 -17 b 1056 471 843 -17 1006 157 z "},"Ù":{"ha":1119,"x_min":0,"x_max":0,"o":"m 740 1011 l 603 1179 l 429 1179 l 429 1176 l 601 1011 z m 1133 958 l 988 958 l 911 471 b 540 119 874 239 763 119 b 275 364 365 119 275 193 b 288 490 275 399 281 451 l 361 958 l 208 958 l 135 490 b 124 340 126 439 124 385 b 517 -17 124 97 272 -17 b 1056 471 843 -17 1006 157 z "},"Ű":{"ha":1119,"x_min":0,"x_max":0,"o":"m 804 1178 l 671 1178 l 519 1011 l 628 1011 l 804 1175 z m 1018 1178 l 885 1178 l 733 1011 l 842 1011 l 1018 1175 z m 1133 958 l 988 958 l 911 471 b 540 119 874 239 763 119 b 275 364 365 119 275 193 b 288 490 275 399 281 451 l 361 958 l 208 958 l 135 490 b 124 340 126 439 124 385 b 517 -17 124 97 272 -17 b 1056 471 843 -17 1006 157 z "},"Ū":{"ha":1119,"x_min":0,"x_max":0,"o":"m 939 1138 l 443 1138 l 426 1033 l 922 1033 z m 1133 958 l 988 958 l 911 471 b 540 119 874 239 763 119 b 275 364 365 119 275 193 b 288 490 275 399 281 451 l 361 958 l 208 958 l 135 490 b 124 340 126 439 124 385 b 517 -17 124 97 272 -17 b 1056 471 843 -17 1006 157 z "},"Ų":{"ha":1119,"x_min":0,"x_max":0,"o":"m 676 -164 b 599 -181 665 -169 640 -181 b 538 -128 556 -181 538 -162 b 607 -12 538 -79 574 -39 b 1056 471 874 18 1010 188 l 1133 958 l 988 958 l 911 471 b 540 119 874 239 763 119 b 275 364 365 119 275 193 b 288 490 275 399 281 451 l 361 958 l 208 958 l 135 490 b 124 340 126 439 124 385 b 490 -17 124 106 261 -8 b 394 -183 444 -53 394 -108 b 542 -290 394 -257 443 -290 b 668 -265 607 -290 651 -272 z "},"Ů":{"ha":1119,"x_min":0,"x_max":0,"o":"m 835 1140 b 706 1244 835 1210 779 1244 b 544 1113 615 1244 544 1193 b 674 1010 544 1044 600 1010 b 835 1140 764 1010 835 1061 z m 760 1136 b 682 1079 760 1100 731 1079 b 619 1118 642 1079 619 1094 b 697 1175 619 1154 649 1175 b 760 1136 738 1175 760 1160 z m 1133 958 l 988 958 l 911 471 b 540 119 874 239 763 119 b 275 364 365 119 275 193 b 288 490 275 399 281 451 l 361 958 l 208 958 l 135 490 b 124 340 126 439 124 385 b 517 -17 124 97 272 -17 b 1056 471 843 -17 1006 157 z "},"Ũ":{"ha":1119,"x_min":0,"x_max":0,"o":"m 932 1163 l 854 1163 b 796 1103 849 1124 833 1103 b 582 1174 738 1103 667 1174 b 436 1021 492 1174 450 1119 l 513 1021 b 571 1081 518 1060 535 1081 b 785 1010 631 1081 701 1010 b 932 1163 876 1010 918 1064 z m 1133 958 l 988 958 l 911 471 b 540 119 874 239 763 119 b 275 364 365 119 275 193 b 288 490 275 399 281 451 l 361 958 l 208 958 l 135 490 b 124 340 126 439 124 385 b 517 -17 124 97 272 -17 b 1056 471 843 -17 1006 157 z "},"V":{"ha":1024,"x_min":0,"x_max":0,"o":"m 1128 958 l 960 958 l 494 154 l 492 154 l 278 958 l 119 958 l 392 0 l 550 0 z "},"W":{"ha":1486,"x_min":0,"x_max":0,"o":"m 1568 958 l 1410 958 l 1122 213 l 1119 213 l 929 958 l 774 958 l 350 213 l 347 213 l 294 958 l 140 958 l 228 0 l 383 0 l 821 765 l 824 765 l 1021 0 l 1178 0 z "},"Ẃ":{"ha":1486,"x_min":0,"x_max":0,"o":"m 1157 1179 l 975 1179 l 785 1011 l 931 1011 l 1157 1176 z m 1568 958 l 1410 958 l 1122 213 l 1119 213 l 929 958 l 774 958 l 350 213 l 347 213 l 294 958 l 140 958 l 228 0 l 383 0 l 821 765 l 824 765 l 1021 0 l 1178 0 z "},"Ŵ":{"ha":1486,"x_min":0,"x_max":0,"o":"m 1082 1011 l 963 1176 l 807 1176 l 635 1011 l 757 1011 l 875 1101 l 876 1101 l 964 1011 z m 1568 958 l 1410 958 l 1122 213 l 1119 213 l 929 958 l 774 958 l 350 213 l 347 213 l 294 958 l 140 958 l 228 0 l 383 0 l 821 765 l 824 765 l 1021 0 l 1178 0 z "},"Ẅ":{"ha":1486,"x_min":0,"x_max":0,"o":"m 821 1160 l 678 1160 l 657 1022 l 800 1022 z m 1082 1160 l 939 1160 l 918 1022 l 1061 1022 z m 1568 958 l 1410 958 l 1122 213 l 1119 213 l 929 958 l 774 958 l 350 213 l 347 213 l 294 958 l 140 958 l 228 0 l 383 0 l 821 765 l 824 765 l 1021 0 l 1178 0 z "},"Ẁ":{"ha":1486,"x_min":0,"x_max":0,"o":"m 926 1011 l 789 1179 l 615 1179 l 615 1176 l 788 1011 z m 1568 958 l 1410 958 l 1122 213 l 1119 213 l 929 958 l 774 958 l 350 213 l 347 213 l 294 958 l 140 958 l 228 0 l 383 0 l 821 765 l 824 765 l 1021 0 l 1178 0 z "},"X":{"ha":1018,"x_min":0,"x_max":0,"o":"m 1086 958 l 894 958 l 564 599 l 333 958 l 147 958 l 450 507 l -22 0 l 169 0 l 524 393 l 765 0 l 951 0 l 639 486 z "},"Ẋ":{"ha":1018,"x_min":0,"x_max":0,"o":"m 724 1172 l 571 1172 l 549 1028 l 700 1028 z m 1086 958 l 894 958 l 564 599 l 333 958 l 147 958 l 450 507 l -22 0 l 169 0 l 524 393 l 765 0 l 951 0 l 639 486 z "},"Y":{"ha":974,"x_min":0,"x_max":0,"o":"m 1085 958 l 907 958 l 521 478 l 518 478 l 286 958 l 114 958 l 425 340 l 372 0 l 522 0 l 576 340 z "},"Ý":{"ha":974,"x_min":0,"x_max":0,"o":"m 893 1179 l 711 1179 l 521 1011 l 667 1011 l 893 1176 z m 1085 958 l 907 958 l 521 478 l 518 478 l 286 958 l 114 958 l 425 340 l 372 0 l 522 0 l 576 340 z "},"Ŷ":{"ha":974,"x_min":0,"x_max":0,"o":"m 818 1011 l 699 1176 l 543 1176 l 371 1011 l 493 1011 l 611 1101 l 613 1101 l 700 1011 z m 1085 958 l 907 958 l 521 478 l 518 478 l 286 958 l 114 958 l 425 340 l 372 0 l 522 0 l 576 340 z "},"Ÿ":{"ha":974,"x_min":0,"x_max":0,"o":"m 558 1160 l 415 1160 l 394 1022 l 538 1022 z m 819 1160 l 676 1160 l 656 1022 l 799 1022 z m 1085 958 l 907 958 l 521 478 l 518 478 l 286 958 l 114 958 l 425 340 l 372 0 l 522 0 l 576 340 z "},"Ỳ":{"ha":974,"x_min":0,"x_max":0,"o":"m 664 1011 l 526 1179 l 353 1179 l 353 1176 l 525 1011 z m 1085 958 l 907 958 l 521 478 l 518 478 l 286 958 l 114 958 l 425 340 l 372 0 l 522 0 l 576 340 z "},"Z":{"ha":990,"x_min":0,"x_max":0,"o":"m 1029 958 l 193 958 l 174 828 l 790 828 l 790 825 l 43 119 l 24 0 l 901 0 l 922 133 l 274 133 l 274 136 l 1011 840 z "},"Ź":{"ha":990,"x_min":0,"x_max":0,"o":"m 911 1179 l 729 1179 l 539 1011 l 685 1011 l 911 1176 z m 1029 958 l 193 958 l 174 828 l 790 828 l 790 825 l 43 119 l 24 0 l 901 0 l 922 133 l 274 133 l 274 136 l 1011 840 z "},"Ž":{"ha":990,"x_min":0,"x_max":0,"o":"m 863 1181 l 740 1181 l 622 1090 l 621 1090 l 533 1181 l 415 1181 l 535 1015 l 692 1015 z m 1029 958 l 193 958 l 174 828 l 790 828 l 790 825 l 43 119 l 24 0 l 901 0 l 922 133 l 274 133 l 274 136 l 1011 840 z "},"Ż":{"ha":990,"x_min":0,"x_max":0,"o":"m 715 1172 l 563 1172 l 540 1028 l 692 1028 z m 1029 958 l 193 958 l 174 828 l 790 828 l 790 825 l 43 119 l 24 0 l 901 0 l 922 133 l 274 133 l 274 136 l 1011 840 z "},"Ƶ":{"ha":992,"x_min":0,"x_max":0,"o":"m 207 525 l 193 439 l 382 439 l 43 119 l 24 0 l 901 0 l 922 133 l 274 133 l 274 136 l 590 439 l 881 439 l 894 525 l 681 525 l 1011 840 l 1029 958 l 193 958 l 174 828 l 790 828 l 790 825 l 472 525 z "},"a":{"ha":871,"x_min":0,"x_max":0,"o":"m 844 681 l 703 681 l 690 593 l 688 593 b 456 697 668 619 606 697 b 61 294 260 697 61 557 b 340 -17 61 96 176 -17 b 608 97 513 -17 586 71 l 611 97 l 596 0 l 738 0 z m 663 472 l 625 222 b 393 113 599 194 526 113 b 211 297 283 113 211 167 b 472 571 211 481 332 571 b 663 472 594 571 642 506 z "},"á":{"ha":871,"x_min":0,"x_max":0,"o":"m 813 953 l 625 953 l 413 758 l 560 758 l 811 950 z m 844 681 l 703 681 l 690 593 l 688 593 b 456 697 668 619 606 697 b 61 294 260 697 61 557 b 340 -17 61 96 176 -17 b 608 97 513 -17 586 71 l 611 97 l 596 0 l 738 0 z m 663 472 l 625 222 b 393 113 599 194 526 113 b 211 297 283 113 211 167 b 472 571 211 481 332 571 b 663 472 594 571 642 506 z "},"ă":{"ha":871,"x_min":0,"x_max":0,"o":"m 732 944 l 638 944 b 500 856 622 896 585 856 b 396 931 439 856 396 881 l 396 944 l 300 944 b 299 911 299 933 299 924 b 489 757 299 819 364 757 b 732 944 644 757 714 850 z m 844 681 l 703 681 l 690 593 l 688 593 b 456 697 668 619 606 697 b 61 294 260 697 61 557 b 340 -17 61 96 176 -17 b 608 97 513 -17 586 71 l 611 97 l 596 0 l 738 0 z m 663 472 l 625 222 b 393 113 599 194 526 113 b 211 297 283 113 211 167 b 472 571 211 481 332 571 b 663 472 594 571 642 506 z "},"â":{"ha":871,"x_min":0,"x_max":0,"o":"m 729 757 l 608 951 l 431 951 l 247 757 l 371 757 l 507 869 l 510 869 l 610 757 z m 844 681 l 703 681 l 690 593 l 688 593 b 456 697 668 619 606 697 b 61 294 260 697 61 557 b 340 -17 61 96 176 -17 b 608 97 513 -17 586 71 l 611 97 l 596 0 l 738 0 z m 663 472 l 625 222 b 393 113 599 194 526 113 b 211 297 283 113 211 167 b 472 571 211 481 332 571 b 663 472 594 571 642 506 z "},"ä":{"ha":871,"x_min":0,"x_max":0,"o":"m 464 924 l 319 924 l 299 785 l 443 785 z m 707 924 l 564 924 l 542 785 l 686 785 z m 844 681 l 703 681 l 690 593 l 688 593 b 456 697 668 619 606 697 b 61 294 260 697 61 557 b 340 -17 61 96 176 -17 b 608 97 513 -17 586 71 l 611 97 l 596 0 l 738 0 z m 663 472 l 625 222 b 393 113 599 194 526 113 b 211 297 283 113 211 167 b 472 571 211 481 332 571 b 663 472 594 571 642 506 z "},"æ":{"ha":1333,"x_min":0,"x_max":0,"o":"m 1311 515 b 1089 697 1311 629 1224 697 b 814 578 946 697 854 626 l 811 578 l 828 681 l 704 681 l 689 593 l 686 593 b 456 697 667 619 606 697 b 61 292 260 697 61 560 b 350 -17 61 88 179 -17 b 669 128 546 -17 643 99 l 672 128 b 949 -17 719 33 815 -17 b 1244 69 1132 -17 1221 49 l 1207 181 b 982 111 1186 165 1113 111 b 782 292 847 111 786 167 l 947 292 b 1311 515 1211 292 1311 371 z m 1060 575 b 1181 494 1138 575 1181 544 b 943 396 1181 422 1122 396 l 794 396 b 1060 575 831 511 935 575 z m 211 297 b 472 571 211 485 332 571 b 664 472 596 571 642 506 l 647 369 b 640 281 643 346 640 307 b 643 236 640 265 642 250 b 393 113 606 192 526 113 b 211 297 283 113 211 167 z "},"ǽ":{"ha":1333,"x_min":0,"x_max":0,"o":"m 1097 953 l 910 953 l 697 758 l 844 758 l 1096 950 z m 1311 515 b 1089 697 1311 629 1224 697 b 814 578 946 697 854 626 l 811 578 l 828 681 l 704 681 l 689 593 l 686 593 b 456 697 667 619 606 697 b 61 292 260 697 61 560 b 350 -17 61 88 179 -17 b 669 128 546 -17 643 99 l 672 128 b 949 -17 719 33 815 -17 b 1244 69 1132 -17 1221 49 l 1207 181 b 982 111 1186 165 1113 111 b 782 292 847 111 786 167 l 947 292 b 1311 515 1211 292 1311 371 z m 1060 575 b 1181 494 1138 575 1181 544 b 943 396 1181 422 1122 396 l 794 396 b 1060 575 831 511 935 575 z m 211 297 b 472 571 211 485 332 571 b 664 472 596 571 642 506 l 647 369 b 640 281 643 346 640 307 b 643 236 640 265 642 250 b 393 113 606 192 526 113 b 211 297 283 113 211 167 z "},"à":{"ha":871,"x_min":0,"x_max":0,"o":"m 558 758 l 408 953 l 225 953 l 225 950 l 417 758 z m 844 681 l 703 681 l 690 593 l 688 593 b 456 697 668 619 606 697 b 61 294 260 697 61 557 b 340 -17 61 96 176 -17 b 608 97 513 -17 586 71 l 611 97 l 596 0 l 738 0 z m 663 472 l 625 222 b 393 113 599 194 526 113 b 211 297 283 113 211 167 b 472 571 211 481 332 571 b 663 472 594 571 642 506 z "},"ā":{"ha":871,"x_min":0,"x_max":0,"o":"m 763 893 l 258 893 l 242 789 l 746 789 z m 844 681 l 703 681 l 690 593 l 688 593 b 456 697 668 619 606 697 b 61 294 260 697 61 557 b 340 -17 61 96 176 -17 b 608 97 513 -17 586 71 l 611 97 l 596 0 l 738 0 z m 663 472 l 625 222 b 393 113 599 194 526 113 b 211 297 283 113 211 167 b 472 571 211 481 332 571 b 663 472 594 571 642 506 z "},"ą":{"ha":871,"x_min":0,"x_max":0,"o":"m 744 -164 b 667 -181 733 -169 708 -181 b 606 -128 624 -181 606 -162 b 690 0 606 -72 654 -26 l 738 0 l 844 681 l 703 681 l 690 593 l 688 593 b 456 697 668 619 606 697 b 61 294 260 697 61 557 b 340 -17 61 96 176 -17 b 608 97 513 -17 586 71 l 611 97 l 597 11 b 463 -183 547 -21 463 -86 b 610 -290 463 -257 511 -290 b 736 -265 675 -290 719 -272 z m 663 472 l 625 222 b 393 113 599 194 526 113 b 211 297 283 113 211 167 b 472 571 211 481 332 571 b 663 472 594 571 642 506 z "},"å":{"ha":871,"x_min":0,"x_max":0,"o":"m 660 889 b 525 997 660 956 610 997 b 351 856 422 997 351 940 b 486 749 351 789 401 749 b 660 889 589 749 660 804 z m 578 881 b 497 819 578 846 549 819 b 433 864 456 819 433 838 b 514 925 433 899 463 925 b 578 881 556 925 578 907 z m 844 681 l 703 681 l 690 593 l 688 593 b 456 697 668 619 606 697 b 61 294 260 697 61 557 b 340 -17 61 96 176 -17 b 608 97 513 -17 586 71 l 611 97 l 596 0 l 738 0 z m 663 472 l 625 222 b 393 113 599 194 526 113 b 211 297 283 113 211 167 b 472 571 211 481 332 571 b 663 472 594 571 642 506 z "},"ǻ":{"ha":871,"x_min":0,"x_max":0,"o":"m 685 1126 l 394 1011 l 385 954 l 669 1038 z m 646 861 b 518 950 646 913 603 950 b 360 835 418 950 360 900 b 488 744 360 782 401 744 b 646 861 588 744 646 796 z m 575 856 b 496 803 575 825 546 803 b 431 840 456 803 431 814 b 510 892 431 871 460 892 b 575 856 550 892 575 881 z m 844 681 l 703 681 l 690 593 l 688 593 b 456 697 668 619 606 697 b 61 294 260 697 61 557 b 340 -17 61 96 176 -17 b 608 97 513 -17 586 71 l 611 97 l 596 0 l 738 0 z m 663 472 l 625 222 b 393 113 599 194 526 113 b 211 297 283 113 211 167 b 472 571 211 481 332 571 b 663 472 594 571 642 506 z "},"ã":{"ha":871,"x_min":0,"x_max":0,"o":"m 756 926 l 676 926 b 615 863 671 886 654 863 b 399 940 554 863 488 940 b 250 774 307 940 264 881 l 329 774 b 390 838 336 814 353 838 b 607 760 453 838 518 760 b 756 926 700 760 742 819 z m 844 681 l 703 681 l 690 593 l 688 593 b 456 697 668 619 606 697 b 61 294 260 697 61 557 b 340 -17 61 96 176 -17 b 608 97 513 -17 586 71 l 611 97 l 596 0 l 738 0 z m 663 472 l 625 222 b 393 113 599 194 526 113 b 211 297 283 113 211 167 b 472 571 211 481 332 571 b 663 472 594 571 642 506 z "},"b":{"ha":868,"x_min":0,"x_max":0,"o":"m 835 401 b 564 697 835 590 732 697 b 303 590 421 697 338 625 l 300 590 l 363 986 l 213 986 l 57 0 l 199 0 l 213 88 l 215 88 b 432 -17 235 58 293 -17 b 835 401 650 -17 835 124 z m 685 389 b 424 113 685 204 572 113 b 239 208 308 113 258 175 l 279 461 b 511 571 311 496 390 571 b 685 389 626 571 685 504 z "},"c":{"ha":736,"x_min":0,"x_max":0,"o":"m 750 635 b 514 697 721 654 654 697 b 61 290 297 697 61 576 b 393 -17 61 72 208 -17 b 668 47 538 -17 624 19 l 636 165 b 426 113 603 146 535 113 b 213 301 306 113 213 164 b 518 571 213 485 354 571 b 700 517 622 571 674 535 z "},"ć":{"ha":736,"x_min":0,"x_max":0,"o":"m 821 953 l 633 953 l 421 758 l 568 758 l 819 950 z m 750 635 b 514 697 721 654 654 697 b 61 290 297 697 61 576 b 393 -17 61 72 208 -17 b 668 47 538 -17 624 19 l 636 165 b 426 113 603 146 535 113 b 213 301 306 113 213 164 b 518 571 213 485 354 571 b 700 517 622 571 674 535 z "},"č":{"ha":736,"x_min":0,"x_max":0,"o":"m 769 956 l 646 956 l 510 843 l 507 843 l 407 956 l 288 956 l 408 761 l 586 761 z m 750 635 b 514 697 721 654 654 697 b 61 290 297 697 61 576 b 393 -17 61 72 208 -17 b 668 47 538 -17 624 19 l 636 165 b 426 113 603 146 535 113 b 213 301 306 113 213 164 b 518 571 213 485 354 571 b 700 517 622 571 674 535 z "},"ç":{"ha":736,"x_min":0,"x_max":0,"o":"m 517 -161 b 385 -69 517 -99 464 -75 l 422 -17 b 668 47 549 -11 626 21 l 636 165 b 426 113 603 146 535 113 b 213 301 306 113 213 164 b 518 571 213 485 354 571 b 700 517 622 571 674 535 l 750 635 b 514 697 721 654 654 697 b 61 290 297 697 61 576 b 335 -14 61 96 179 4 l 256 -111 l 260 -118 b 404 -165 365 -118 404 -135 b 303 -215 404 -197 376 -215 b 201 -196 253 -215 214 -203 l 194 -268 b 317 -290 208 -275 251 -290 b 517 -161 451 -290 517 -231 z "},"ĉ":{"ha":736,"x_min":0,"x_max":0,"o":"m 738 757 l 617 951 l 439 951 l 256 757 l 379 757 l 515 869 l 518 869 l 618 757 z m 750 635 b 514 697 721 654 654 697 b 61 290 297 697 61 576 b 393 -17 61 72 208 -17 b 668 47 538 -17 624 19 l 636 165 b 426 113 603 146 535 113 b 213 301 306 113 213 164 b 518 571 213 485 354 571 b 700 517 622 571 674 535 z "},"ċ":{"ha":736,"x_min":0,"x_max":0,"o":"m 600 924 l 449 924 l 425 778 l 576 778 z m 750 635 b 514 697 721 654 654 697 b 61 290 297 697 61 576 b 393 -17 61 72 208 -17 b 668 47 538 -17 624 19 l 636 165 b 426 113 603 146 535 113 b 213 301 306 113 213 164 b 518 571 213 485 354 571 b 700 517 622 571 674 535 z "},"d":{"ha":875,"x_min":0,"x_max":0,"o":"m 893 986 l 743 986 l 683 600 l 681 600 b 456 697 661 625 604 697 b 61 288 272 697 61 554 b 343 -17 61 89 182 -17 b 608 97 513 -17 583 67 l 611 97 l 596 0 l 738 0 z m 663 471 l 624 222 b 392 113 594 189 524 113 b 211 293 281 113 211 165 b 478 571 211 479 347 571 b 663 471 596 571 644 503 z "},"ď":{"ha":1021,"x_min":0,"x_max":0,"o":"m 893 986 l 743 986 l 683 600 l 681 600 b 456 697 661 625 604 697 b 61 288 272 697 61 554 b 343 -17 61 89 182 -17 b 608 97 513 -17 583 67 l 611 97 l 596 0 l 738 0 z m 1178 986 l 1017 986 l 899 779 l 1021 779 l 1178 983 z m 663 471 l 624 222 b 392 113 594 189 524 113 b 211 293 281 113 211 165 b 478 571 211 479 347 571 b 663 471 596 571 644 503 z "},"đ":{"ha":894,"x_min":0,"x_max":0,"o":"m 979 881 l 876 881 l 893 986 l 743 986 l 726 881 l 443 881 l 429 797 l 714 797 l 683 600 l 681 600 b 456 697 661 625 604 697 b 61 288 272 697 61 554 b 343 -17 61 89 182 -17 b 608 97 513 -17 583 67 l 611 97 l 596 0 l 738 0 l 864 797 l 965 797 z m 663 471 l 624 222 b 392 113 594 189 524 113 b 211 293 281 113 211 165 b 478 571 211 479 347 571 b 663 471 596 571 644 503 z "},"ð":{"ha":869,"x_min":0,"x_max":0,"o":"m 838 485 b 679 872 838 661 782 788 l 846 938 l 826 1004 l 610 919 b 318 1003 531 964 433 990 l 261 892 b 442 854 329 883 389 872 l 243 778 l 264 711 l 531 815 b 685 585 614 767 664 693 l 682 585 b 450 682 660 611 603 682 b 63 299 278 682 63 571 b 385 -17 63 82 190 -17 b 838 485 649 -17 838 160 z m 676 385 b 399 113 676 210 544 113 b 213 300 296 113 213 174 b 478 561 213 483 338 561 b 676 385 596 561 676 501 z "},"e":{"ha":756,"x_min":0,"x_max":0,"o":"m 733 513 b 492 697 733 631 638 697 b 61 282 278 697 61 558 b 371 -17 61 89 178 -17 b 667 69 551 -17 642 49 l 628 183 b 403 111 606 167 531 111 b 204 292 269 111 208 167 l 369 292 b 733 513 635 292 733 369 z m 482 575 b 601 494 560 575 601 544 b 365 396 601 422 544 396 l 217 396 b 482 575 253 511 357 575 z "},"é":{"ha":756,"x_min":0,"x_max":0,"o":"m 803 953 l 615 953 l 403 758 l 550 758 l 801 950 z m 733 513 b 492 697 733 631 638 697 b 61 282 278 697 61 558 b 371 -17 61 89 178 -17 b 667 69 551 -17 642 49 l 628 183 b 403 111 606 167 531 111 b 204 292 269 111 208 167 l 369 292 b 733 513 635 292 733 369 z m 482 575 b 601 494 560 575 601 544 b 365 396 601 422 544 396 l 217 396 b 482 575 253 511 357 575 z "},"ĕ":{"ha":756,"x_min":0,"x_max":0,"o":"m 722 944 l 628 944 b 490 856 613 896 575 856 b 386 931 429 856 386 881 l 386 944 l 290 944 b 289 911 289 933 289 924 b 479 757 289 819 354 757 b 722 944 635 757 704 850 z m 733 513 b 492 697 733 631 638 697 b 61 282 278 697 61 558 b 371 -17 61 89 178 -17 b 667 69 551 -17 642 49 l 628 183 b 403 111 606 167 531 111 b 204 292 269 111 208 167 l 369 292 b 733 513 635 292 733 369 z m 482 575 b 601 494 560 575 601 544 b 365 396 601 422 544 396 l 217 396 b 482 575 253 511 357 575 z "},"ě":{"ha":756,"x_min":0,"x_max":0,"o":"m 751 956 l 628 956 l 492 843 l 489 843 l 389 956 l 269 956 l 390 761 l 568 761 z m 733 513 b 492 697 733 631 638 697 b 61 282 278 697 61 558 b 371 -17 61 89 178 -17 b 667 69 551 -17 642 49 l 628 183 b 403 111 606 167 531 111 b 204 292 269 111 208 167 l 369 292 b 733 513 635 292 733 369 z m 482 575 b 601 494 560 575 601 544 b 365 396 601 422 544 396 l 217 396 b 482 575 253 511 357 575 z "},"ê":{"ha":756,"x_min":0,"x_max":0,"o":"m 719 757 l 599 951 l 421 951 l 238 757 l 361 757 l 497 869 l 500 869 l 600 757 z m 733 513 b 492 697 733 631 638 697 b 61 282 278 697 61 558 b 371 -17 61 89 178 -17 b 667 69 551 -17 642 49 l 628 183 b 403 111 606 167 531 111 b 204 292 269 111 208 167 l 369 292 b 733 513 635 292 733 369 z m 482 575 b 601 494 560 575 601 544 b 365 396 601 422 544 396 l 217 396 b 482 575 253 511 357 575 z "},"ë":{"ha":756,"x_min":0,"x_max":0,"o":"m 454 924 l 310 924 l 289 785 l 433 785 z m 697 924 l 554 924 l 532 785 l 676 785 z m 733 513 b 492 697 733 631 638 697 b 61 282 278 697 61 558 b 371 -17 61 89 178 -17 b 667 69 551 -17 642 49 l 628 183 b 403 111 606 167 531 111 b 204 292 269 111 208 167 l 369 292 b 733 513 635 292 733 369 z m 482 575 b 601 494 560 575 601 544 b 365 396 601 422 544 396 l 217 396 b 482 575 253 511 357 575 z "},"ė":{"ha":756,"x_min":0,"x_max":0,"o":"m 581 924 l 429 924 l 406 778 l 557 778 z m 733 513 b 492 697 733 631 638 697 b 61 282 278 697 61 558 b 371 -17 61 89 178 -17 b 667 69 551 -17 642 49 l 628 183 b 403 111 606 167 531 111 b 204 292 269 111 208 167 l 369 292 b 733 513 635 292 733 369 z m 482 575 b 601 494 560 575 601 544 b 365 396 601 422 544 396 l 217 396 b 482 575 253 511 357 575 z "},"è":{"ha":756,"x_min":0,"x_max":0,"o":"m 549 758 l 399 953 l 215 953 l 215 950 l 407 758 z m 733 513 b 492 697 733 631 638 697 b 61 282 278 697 61 558 b 371 -17 61 89 178 -17 b 667 69 551 -17 642 49 l 628 183 b 403 111 606 167 531 111 b 204 292 269 111 208 167 l 369 292 b 733 513 635 292 733 369 z m 482 575 b 601 494 560 575 601 544 b 365 396 601 422 544 396 l 217 396 b 482 575 253 511 357 575 z "},"ē":{"ha":756,"x_min":0,"x_max":0,"o":"m 753 893 l 249 893 l 232 789 l 736 789 z m 733 513 b 492 697 733 631 638 697 b 61 282 278 697 61 558 b 371 -17 61 89 178 -17 b 667 69 551 -17 642 49 l 628 183 b 403 111 606 167 531 111 b 204 292 269 111 208 167 l 369 292 b 733 513 635 292 733 369 z m 482 575 b 601 494 560 575 601 544 b 365 396 601 422 544 396 l 217 396 b 482 575 253 511 357 575 z "},"ę":{"ha":756,"x_min":0,"x_max":0,"o":"m 585 -164 b 507 -181 574 -169 549 -181 b 446 -128 464 -181 446 -162 b 538 6 446 -68 501 -19 b 667 69 610 26 651 57 l 628 183 b 403 111 606 167 531 111 b 204 292 269 111 208 167 l 369 292 b 733 513 635 292 733 369 b 492 697 733 631 638 697 b 61 282 278 697 61 558 b 371 -17 61 89 178 -17 b 399 -17 381 -17 390 -17 b 303 -183 353 -53 303 -108 b 450 -290 303 -257 351 -290 b 576 -265 515 -290 560 -272 z m 482 575 b 601 494 560 575 601 544 b 365 396 601 422 544 396 l 217 396 b 482 575 253 511 357 575 z "},"ə":{"ha":756,"x_min":0,"x_max":0,"o":"m 722 400 b 417 697 722 593 611 697 b 114 617 264 697 154 644 l 156 501 b 389 568 193 526 271 568 b 579 396 521 568 574 517 l 414 396 b 50 175 149 396 50 315 b 289 -17 50 57 142 -17 b 722 400 511 -17 722 124 z m 301 106 b 181 190 224 106 181 139 b 417 293 181 263 239 293 l 569 293 b 301 106 538 174 435 106 z "},"f":{"ha":538,"x_min":0,"x_max":0,"o":"m 579 681 l 360 681 l 368 732 b 529 871 383 826 443 871 b 606 856 571 871 596 860 l 628 976 b 526 994 617 981 579 994 b 218 710 371 994 250 918 l 214 681 l 108 681 l 89 557 l 194 557 l 106 0 l 253 0 l 340 557 l 560 557 z "},"ﬀ":{"ha":1076,"x_min":0,"x_max":0,"o":"m 563 681 l 360 681 l 368 732 b 529 871 383 826 443 871 b 606 856 571 871 596 860 l 628 976 b 526 994 617 981 579 994 b 218 710 371 994 250 918 l 214 681 l 108 681 l 89 557 l 194 557 l 106 0 l 253 0 l 340 557 l 543 557 z m 1118 681 l 899 681 l 907 732 b 1068 871 922 826 982 871 b 1144 856 1110 871 1135 860 l 1167 976 b 1065 994 1156 981 1118 994 b 757 710 910 994 789 918 l 753 681 l 647 681 l 628 557 l 733 557 l 644 0 l 792 0 l 879 557 l 1099 557 z "},"ﬃ":{"ha":1432,"x_min":0,"x_max":0,"o":"m 563 681 l 360 681 l 368 732 b 529 871 383 826 443 871 b 606 856 571 871 596 860 l 628 976 b 526 994 617 981 579 994 b 218 710 371 994 250 918 l 214 681 l 108 681 l 89 557 l 194 557 l 106 0 l 253 0 l 340 557 l 543 557 z m 1118 681 l 899 681 l 907 732 b 1068 871 922 826 982 871 b 1144 856 1110 871 1135 860 l 1167 976 b 1065 994 1156 981 1118 994 b 757 710 910 994 789 918 l 753 681 l 647 681 l 628 557 l 733 557 l 644 0 l 792 0 l 879 557 l 1099 557 z m 1440 938 l 1285 938 l 1261 789 l 1415 789 z m 1396 681 l 1247 681 l 1140 0 l 1288 0 z "},"ﬄ":{"ha":1431,"x_min":0,"x_max":0,"o":"m 563 681 l 360 681 l 368 732 b 529 871 383 826 443 871 b 606 856 571 871 596 860 l 628 976 b 526 994 617 981 579 994 b 218 710 371 994 250 918 l 214 681 l 108 681 l 89 557 l 194 557 l 106 0 l 253 0 l 340 557 l 543 557 z m 1118 681 l 899 681 l 907 732 b 1068 871 922 826 982 871 b 1144 856 1110 871 1135 860 l 1167 976 b 1065 994 1156 981 1118 994 b 757 710 910 994 789 918 l 753 681 l 647 681 l 628 557 l 733 557 l 644 0 l 792 0 l 879 557 l 1099 557 z m 1442 986 l 1294 986 l 1139 0 l 1286 0 z "},"ﬁ":{"ha":892,"x_min":0,"x_max":0,"o":"m 579 681 l 360 681 l 368 732 b 529 871 383 826 443 871 b 606 856 571 871 596 860 l 628 976 b 526 994 617 981 579 994 b 218 710 371 994 250 918 l 214 681 l 108 681 l 89 557 l 194 557 l 106 0 l 253 0 l 340 557 l 560 557 z m 901 938 l 746 938 l 722 789 l 876 789 z m 857 681 l 708 681 l 601 0 l 749 0 z "},"ﬂ":{"ha":890,"x_min":0,"x_max":0,"o":"m 579 681 l 360 681 l 368 732 b 529 871 383 826 443 871 b 606 856 571 871 596 860 l 628 976 b 526 994 617 981 579 994 b 218 710 371 994 250 918 l 214 681 l 108 681 l 89 557 l 194 557 l 106 0 l 253 0 l 340 557 l 560 557 z m 903 986 l 756 986 l 600 0 l 747 0 z "},"g":{"ha":871,"x_min":0,"x_max":0,"o":"m 844 681 l 703 681 l 690 593 l 688 593 b 458 697 668 622 608 697 b 61 296 272 697 61 565 b 344 -7 61 106 178 -7 b 601 100 506 -7 579 74 l 604 100 l 600 72 b 301 -168 578 -86 499 -168 b 53 -69 156 -168 78 -93 l 1 -194 b 294 -294 36 -224 117 -294 b 754 103 586 -294 714 -151 z m 664 471 l 625 231 b 389 121 601 203 532 121 b 213 300 282 121 213 189 b 475 571 213 482 339 571 b 664 471 597 571 644 506 z "},"ğ":{"ha":871,"x_min":0,"x_max":0,"o":"m 726 944 l 632 944 b 494 856 617 896 579 856 b 390 931 433 856 390 881 l 390 944 l 294 944 b 293 911 293 933 293 924 b 483 757 293 819 358 757 b 726 944 639 757 708 850 z m 844 681 l 703 681 l 690 593 l 688 593 b 458 697 668 622 608 697 b 61 296 272 697 61 565 b 344 -7 61 106 178 -7 b 601 100 506 -7 579 74 l 604 100 l 600 72 b 301 -168 578 -86 499 -168 b 53 -69 156 -168 78 -93 l 1 -194 b 294 -294 36 -224 117 -294 b 754 103 586 -294 714 -151 z m 664 471 l 625 231 b 389 121 601 203 532 121 b 213 300 282 121 213 189 b 475 571 213 482 339 571 b 664 471 597 571 644 506 z "},"ĝ":{"ha":871,"x_min":0,"x_max":0,"o":"m 724 757 l 603 951 l 425 951 l 242 757 l 365 757 l 501 869 l 504 869 l 604 757 z m 844 681 l 703 681 l 690 593 l 688 593 b 458 697 668 622 608 697 b 61 296 272 697 61 565 b 344 -7 61 106 178 -7 b 601 100 506 -7 579 74 l 604 100 l 600 72 b 301 -168 578 -86 499 -168 b 53 -69 156 -168 78 -93 l 1 -194 b 294 -294 36 -224 117 -294 b 754 103 586 -294 714 -151 z m 664 471 l 625 231 b 389 121 601 203 532 121 b 213 300 282 121 213 189 b 475 571 213 482 339 571 b 664 471 597 571 644 506 z "},"ģ":{"ha":871,"x_min":0,"x_max":0,"o":"m 632 967 l 628 1018 b 428 853 515 1018 447 972 l 415 772 l 553 772 l 571 892 l 521 892 b 632 967 532 950 581 965 z m 844 681 l 703 681 l 690 593 l 688 593 b 458 697 668 622 608 697 b 61 296 272 697 61 565 b 344 -7 61 106 178 -7 b 601 100 506 -7 579 74 l 604 100 l 600 72 b 301 -168 578 -86 499 -168 b 53 -69 156 -168 78 -93 l 1 -194 b 294 -294 36 -224 117 -294 b 754 103 586 -294 714 -151 z m 664 471 l 625 231 b 389 121 601 203 532 121 b 213 300 282 121 213 189 b 475 571 213 482 339 571 b 664 471 597 571 644 506 z "},"ġ":{"ha":871,"x_min":0,"x_max":0,"o":"m 585 924 l 433 924 l 410 778 l 561 778 z m 844 681 l 703 681 l 690 593 l 688 593 b 458 697 668 622 608 697 b 61 296 272 697 61 565 b 344 -7 61 106 178 -7 b 601 100 506 -7 579 74 l 604 100 l 600 72 b 301 -168 578 -86 499 -168 b 53 -69 156 -168 78 -93 l 1 -194 b 294 -294 36 -224 117 -294 b 754 103 586 -294 714 -151 z m 664 471 l 625 231 b 389 121 601 203 532 121 b 213 300 282 121 213 189 b 475 571 213 482 339 571 b 664 471 597 571 644 506 z "},"h":{"ha":879,"x_min":0,"x_max":0,"o":"m 363 986 l 213 986 l 57 0 l 206 0 l 279 467 b 521 571 310 496 399 571 b 660 419 624 571 660 515 b 650 326 660 397 657 367 l 599 0 l 747 0 l 799 326 b 811 461 807 381 811 431 b 576 697 811 606 729 697 b 303 594 428 697 336 624 l 300 594 z "},"ħ":{"ha":900,"x_min":0,"x_max":0,"o":"m 382 986 l 232 986 l 215 881 l 115 881 l 101 797 l 203 797 l 76 0 l 225 0 l 299 467 b 540 571 329 496 418 571 b 679 419 643 571 679 515 b 669 326 679 397 676 367 l 618 0 l 767 0 l 818 326 b 831 461 826 381 831 431 b 596 697 831 606 749 697 b 322 594 447 697 356 624 l 319 594 l 351 797 l 639 797 l 651 881 l 365 881 z "},"ĥ":{"ha":879,"x_min":0,"x_max":0,"o":"m 515 1025 l 396 1190 l 240 1190 l 68 1025 l 190 1025 l 308 1115 l 310 1115 l 397 1025 z m 363 986 l 213 986 l 57 0 l 206 0 l 279 467 b 521 571 310 496 399 571 b 660 419 624 571 660 515 b 650 326 660 397 657 367 l 599 0 l 747 0 l 799 326 b 811 461 807 381 811 431 b 576 697 811 606 729 697 b 303 594 428 697 336 624 l 300 594 z "},"i":{"ha":353,"x_min":0,"x_max":0,"o":"m 363 938 l 207 938 l 183 789 l 338 789 z m 318 681 l 169 681 l 63 0 l 210 0 z "},"í":{"ha":353,"x_min":0,"x_max":0,"o":"m 581 953 l 393 953 l 181 758 l 328 758 l 579 950 z m 318 681 l 169 681 l 63 0 l 210 0 z "},"ĭ":{"ha":353,"x_min":0,"x_max":0,"o":"m 500 944 l 406 944 b 268 856 390 896 353 856 b 164 931 207 856 164 881 l 164 944 l 68 944 b 67 911 67 933 67 924 b 257 757 67 819 132 757 b 500 944 413 757 482 850 z m 318 681 l 169 681 l 63 0 l 210 0 z "},"î":{"ha":353,"x_min":0,"x_max":0,"o":"m 497 757 l 376 951 l 199 951 l 15 757 l 139 757 l 275 869 l 278 869 l 378 757 z m 318 681 l 169 681 l 63 0 l 210 0 z "},"ï":{"ha":353,"x_min":0,"x_max":0,"o":"m 232 924 l 88 924 l 67 785 l 211 785 z m 475 924 l 332 924 l 310 785 l 454 785 z m 318 681 l 169 681 l 63 0 l 210 0 z "},"ì":{"ha":353,"x_min":0,"x_max":0,"o":"m 326 758 l 176 953 l -7 953 l -7 950 l 185 758 z m 318 681 l 169 681 l 63 0 l 210 0 z "},"ĳ":{"ha":713,"x_min":0,"x_max":0,"o":"m 363 938 l 207 938 l 183 789 l 338 789 z m 722 938 l 567 938 l 542 789 l 697 789 z m 318 681 l 169 681 l 63 0 l 210 0 z m 676 681 l 529 681 l 421 -4 b 264 -164 401 -129 358 -164 b 197 -151 229 -164 207 -156 l 182 -275 b 278 -290 193 -279 225 -290 b 568 -10 436 -290 535 -221 z "},"ī":{"ha":353,"x_min":0,"x_max":0,"o":"m 531 893 l 26 893 l 10 789 l 514 789 z m 318 681 l 169 681 l 63 0 l 210 0 z "},"į":{"ha":353,"x_min":0,"x_max":0,"o":"m 363 938 l 207 938 l 183 789 l 338 789 z m 200 -164 b 122 -181 189 -169 164 -181 b 61 -128 79 -181 61 -162 b 146 0 61 -72 110 -26 l 210 0 l 318 681 l 169 681 l 65 19 b -82 -183 19 -10 -82 -78 b 65 -290 -82 -257 -33 -290 b 192 -265 131 -290 175 -272 z "},"ĩ":{"ha":353,"x_min":0,"x_max":0,"o":"m 522 926 l 443 926 b 382 863 438 886 421 863 b 165 940 321 863 254 940 b 17 774 74 940 31 881 l 96 774 b 157 838 103 814 119 838 b 374 760 219 838 285 760 b 522 926 467 760 508 819 z m 318 681 l 169 681 l 63 0 l 210 0 z "},"ı":{"ha":353,"x_min":0,"x_max":0,"o":"m 318 681 l 169 681 l 63 0 l 210 0 z "},"j":{"ha":360,"x_min":0,"x_max":0,"o":"m 369 938 l 214 938 l 189 789 l 344 789 z m 324 681 l 176 681 l 68 -4 b -89 -164 49 -129 6 -164 b -156 -151 -124 -164 -146 -156 l -171 -275 b -75 -290 -160 -279 -128 -290 b 215 -10 83 -290 182 -221 z "},"ĵ":{"ha":360,"x_min":0,"x_max":0,"o":"m 506 757 l 385 951 l 207 951 l 24 757 l 147 757 l 283 869 l 286 869 l 386 757 z m 324 681 l 176 681 l 68 -4 b -89 -164 49 -129 6 -164 b -156 -151 -124 -164 -146 -156 l -171 -275 b -75 -290 -160 -279 -128 -290 b 215 -10 83 -290 182 -221 z "},"ȷ":{"ha":360,"x_min":0,"x_max":0,"o":"m 324 681 l 176 681 l 68 -4 b -89 -164 49 -129 6 -164 b -156 -151 -124 -164 -146 -156 l -171 -275 b -75 -290 -160 -279 -128 -290 b 215 -10 83 -290 182 -221 z "},"k":{"ha":828,"x_min":0,"x_max":0,"o":"m 769 0 l 504 354 l 851 681 l 658 681 l 386 421 l 272 421 l 361 986 l 213 986 l 57 0 l 206 0 l 251 294 l 371 294 l 582 0 z "},"ķ":{"ha":828,"x_min":0,"x_max":0,"o":"m 769 0 l 504 354 l 851 681 l 658 681 l 386 421 l 272 421 l 361 986 l 213 986 l 57 0 l 206 0 l 251 294 l 371 294 l 582 0 z m 428 -44 l 290 -44 l 272 -164 l 321 -164 b 204 -251 310 -232 263 -250 l 208 -303 b 415 -124 335 -303 393 -257 z "},"ĸ":{"ha":825,"x_min":0,"x_max":0,"o":"m 308 681 l 161 681 l 53 0 l 201 0 l 247 294 l 367 294 l 578 0 l 767 0 l 501 354 l 847 681 l 654 681 l 382 421 l 268 421 z "},"l":{"ha":353,"x_min":0,"x_max":0,"o":"m 365 986 l 218 986 l 63 0 l 210 0 z "},"ĺ":{"ha":353,"x_min":0,"x_max":0,"o":"m 596 1193 l 414 1193 l 224 1025 l 369 1025 l 596 1190 z m 365 986 l 218 986 l 63 0 l 210 0 z "},"ľ":{"ha":493,"x_min":0,"x_max":0,"o":"m 365 986 l 218 986 l 63 0 l 210 0 z m 650 986 l 489 986 l 371 779 l 493 779 l 650 983 z "},"ļ":{"ha":353,"x_min":0,"x_max":0,"o":"m 365 986 l 218 986 l 63 0 l 210 0 z m 193 -65 l 56 -65 l 38 -185 l 86 -185 b -31 -272 75 -253 28 -271 l -26 -324 b 181 -144 100 -324 158 -278 z "},"ŀ":{"ha":525,"x_min":0,"x_max":0,"o":"m 365 986 l 218 986 l 63 0 l 210 0 z m 542 586 l 401 586 l 376 426 l 515 426 z "},"ł":{"ha":407,"x_min":0,"x_max":0,"o":"m 453 686 l 335 601 l 396 986 l 249 986 l 169 481 l 43 390 l 25 282 l 151 374 l 93 0 l 240 0 l 318 493 l 435 578 z "},"m":{"ha":1379,"x_min":0,"x_max":0,"o":"m 303 681 l 161 681 l 53 0 l 201 0 l 275 464 b 500 571 307 496 386 571 b 638 425 593 571 638 518 b 628 335 638 404 633 375 l 574 0 l 722 0 l 775 335 b 788 467 783 389 788 436 l 788 469 b 1013 571 825 506 903 571 b 1160 425 1110 571 1160 525 b 1150 335 1160 404 1156 375 l 1096 0 l 1244 0 l 1297 335 b 1311 467 1306 389 1311 436 b 1069 697 1311 617 1214 697 b 771 568 917 697 818 618 b 560 697 738 654 660 697 b 290 585 410 697 331 624 l 288 585 z "},"n":{"ha":876,"x_min":0,"x_max":0,"o":"m 303 681 l 161 681 l 53 0 l 201 0 l 275 464 b 514 571 307 496 396 571 b 658 425 611 571 658 525 b 647 335 658 401 654 375 l 593 0 l 743 0 l 796 335 b 808 467 804 389 808 436 b 572 697 808 622 714 697 b 290 585 426 697 331 624 l 288 585 z "},"ń":{"ha":876,"x_min":0,"x_max":0,"o":"m 842 953 l 654 953 l 442 758 l 589 758 l 840 950 z m 303 681 l 161 681 l 53 0 l 201 0 l 275 464 b 514 571 307 496 396 571 b 658 425 611 571 658 525 b 647 335 658 401 654 375 l 593 0 l 743 0 l 796 335 b 808 467 804 389 808 436 b 572 697 808 622 714 697 b 290 585 426 697 331 624 l 288 585 z "},"ŉ":{"ha":996,"x_min":0,"x_max":0,"o":"m 332 986 l 194 986 l 176 867 l 225 867 b 108 779 214 799 167 781 l 113 728 b 319 907 239 728 297 774 z m 422 681 l 281 681 l 172 0 l 321 0 l 394 464 b 633 571 426 496 515 571 b 778 425 731 571 778 525 b 767 335 778 401 774 375 l 713 0 l 863 0 l 915 335 b 928 467 924 389 928 436 b 692 697 928 622 833 697 b 410 585 546 697 450 624 l 407 585 z "},"ň":{"ha":876,"x_min":0,"x_max":0,"o":"m 792 956 l 668 956 l 532 843 l 529 843 l 429 956 l 310 956 l 431 761 l 608 761 z m 303 681 l 161 681 l 53 0 l 201 0 l 275 464 b 514 571 307 496 396 571 b 658 425 611 571 658 525 b 647 335 658 401 654 375 l 593 0 l 743 0 l 796 335 b 808 467 804 389 808 436 b 572 697 808 622 714 697 b 290 585 426 697 331 624 l 288 585 z "},"ņ":{"ha":876,"x_min":0,"x_max":0,"o":"m 303 681 l 161 681 l 53 0 l 201 0 l 275 464 b 514 571 307 496 396 571 b 658 425 611 571 658 525 b 647 335 658 401 654 375 l 593 0 l 743 0 l 796 335 b 808 467 804 389 808 436 b 572 697 808 622 714 697 b 290 585 426 697 331 624 l 288 585 z m 460 -44 l 322 -44 l 304 -164 l 353 -164 b 236 -251 342 -232 294 -250 l 240 -303 b 447 -124 367 -303 425 -257 z "},"ñ":{"ha":876,"x_min":0,"x_max":0,"o":"m 785 926 l 706 926 b 644 863 700 886 683 863 b 428 940 583 863 517 940 b 279 774 336 940 293 881 l 358 774 b 419 838 365 814 382 838 b 636 760 482 838 547 760 b 785 926 729 760 771 819 z m 303 681 l 161 681 l 53 0 l 201 0 l 275 464 b 514 571 307 496 396 571 b 658 425 611 571 658 525 b 647 335 658 401 654 375 l 593 0 l 743 0 l 796 335 b 808 467 804 389 808 436 b 572 697 808 622 714 697 b 290 585 426 697 331 624 l 288 585 z "},"ŋ":{"ha":876,"x_min":0,"x_max":0,"o":"m 808 467 b 572 697 808 615 721 697 b 290 585 426 697 331 624 l 288 585 l 303 681 l 161 681 l 53 0 l 201 0 l 275 464 b 514 571 307 496 396 571 b 658 425 611 571 658 521 b 647 335 658 401 654 375 l 594 -6 b 439 -164 574 -129 531 -164 b 372 -153 404 -164 381 -157 l 356 -275 b 453 -290 368 -279 400 -290 b 742 -10 611 -290 708 -221 l 797 335 b 808 467 806 389 808 436 z "},"o":{"ha":858,"x_min":0,"x_max":0,"o":"m 825 382 b 492 697 825 586 683 697 b 61 299 275 697 61 569 b 394 -17 61 94 203 -17 b 825 382 613 -17 825 111 z m 675 382 b 407 113 675 196 538 113 b 211 299 289 113 211 176 b 481 571 211 488 349 571 b 675 382 597 571 675 506 z "},"ó":{"ha":858,"x_min":0,"x_max":0,"o":"m 825 953 l 638 953 l 425 758 l 572 758 l 824 950 z m 825 382 b 492 697 825 586 683 697 b 61 299 275 697 61 569 b 394 -17 61 94 203 -17 b 825 382 613 -17 825 111 z m 675 382 b 407 113 675 196 538 113 b 211 299 289 113 211 176 b 481 571 211 488 349 571 b 675 382 597 571 675 506 z "},"ŏ":{"ha":858,"x_min":0,"x_max":0,"o":"m 744 944 l 650 944 b 513 856 635 896 597 856 b 408 931 451 856 408 881 l 408 944 l 313 944 b 311 911 311 933 311 924 b 501 757 311 819 376 757 b 744 944 657 757 726 850 z m 825 382 b 492 697 825 586 683 697 b 61 299 275 697 61 569 b 394 -17 61 94 203 -17 b 825 382 613 -17 825 111 z m 675 382 b 407 113 675 196 538 113 b 211 299 289 113 211 176 b 481 571 211 488 349 571 b 675 382 597 571 675 506 z "},"ô":{"ha":858,"x_min":0,"x_max":0,"o":"m 742 757 l 621 951 l 443 951 l 260 757 l 383 757 l 519 869 l 522 869 l 622 757 z m 825 382 b 492 697 825 586 683 697 b 61 299 275 697 61 569 b 394 -17 61 94 203 -17 b 825 382 613 -17 825 111 z m 675 382 b 407 113 675 196 538 113 b 211 299 289 113 211 176 b 481 571 211 488 349 571 b 675 382 597 571 675 506 z "},"ö":{"ha":858,"x_min":0,"x_max":0,"o":"m 476 924 l 332 924 l 311 785 l 456 785 z m 719 924 l 576 924 l 554 785 l 699 785 z m 825 382 b 492 697 825 586 683 697 b 61 299 275 697 61 569 b 394 -17 61 94 203 -17 b 825 382 613 -17 825 111 z m 675 382 b 407 113 675 196 538 113 b 211 299 289 113 211 176 b 481 571 211 488 349 571 b 675 382 597 571 675 506 z "},"œ":{"ha":1363,"x_min":0,"x_max":0,"o":"m 1342 514 b 1117 697 1342 624 1257 697 b 769 531 921 697 815 592 l 767 531 b 486 697 732 608 667 697 b 61 299 272 697 61 565 b 392 -17 61 94 197 -17 b 711 144 568 -17 668 81 l 714 144 b 979 -17 739 88 792 -17 b 1274 69 1161 -17 1251 49 l 1236 181 b 1011 111 1215 165 1142 111 b 813 292 876 111 817 167 l 978 292 b 1342 514 1242 292 1342 371 z m 1090 575 b 1210 494 1168 575 1210 544 b 974 396 1210 422 1153 396 l 825 396 b 1090 575 861 511 965 575 z m 675 382 b 407 113 675 196 538 113 b 211 299 289 113 211 176 b 481 571 211 488 349 571 b 675 382 597 571 675 506 z "},"ò":{"ha":858,"x_min":0,"x_max":0,"o":"m 571 758 l 421 953 l 238 953 l 238 950 l 429 758 z m 825 382 b 492 697 825 586 683 697 b 61 299 275 697 61 569 b 394 -17 61 94 203 -17 b 825 382 613 -17 825 111 z m 675 382 b 407 113 675 196 538 113 b 211 299 289 113 211 176 b 481 571 211 488 349 571 b 675 382 597 571 675 506 z "},"ő":{"ha":858,"x_min":0,"x_max":0,"o":"m 661 953 l 517 953 l 322 758 l 440 758 l 661 950 z m 889 953 l 744 953 l 550 758 l 669 758 l 889 950 z m 825 382 b 492 697 825 586 683 697 b 61 299 275 697 61 569 b 394 -17 61 94 203 -17 b 825 382 613 -17 825 111 z m 675 382 b 407 113 675 196 538 113 b 211 299 289 113 211 176 b 481 571 211 488 349 571 b 675 382 597 571 675 506 z "},"ō":{"ha":858,"x_min":0,"x_max":0,"o":"m 775 893 l 271 893 l 254 789 l 758 789 z m 825 382 b 492 697 825 586 683 697 b 61 299 275 697 61 569 b 394 -17 61 94 203 -17 b 825 382 613 -17 825 111 z m 675 382 b 407 113 675 196 538 113 b 211 299 289 113 211 176 b 481 571 211 488 349 571 b 675 382 597 571 675 506 z "},"ø":{"ha":858,"x_min":0,"x_max":0,"o":"m 492 697 b 61 299 275 697 61 569 b 138 83 61 208 89 135 l 39 -17 l 143 -17 l 194 36 b 394 -17 249 1 318 -17 b 825 382 613 -17 825 111 b 749 597 825 472 797 546 l 847 697 l 743 697 l 692 644 b 492 697 638 679 568 697 z m 481 574 b 594 547 525 574 564 564 l 239 186 b 208 299 219 215 208 253 b 481 574 208 489 349 574 z m 678 383 b 406 111 678 194 538 111 b 294 136 363 111 325 119 l 649 496 b 678 383 668 467 678 429 z "},"ǿ":{"ha":858,"x_min":0,"x_max":0,"o":"m 825 953 l 638 953 l 425 758 l 572 758 l 824 950 z m 492 697 b 61 299 275 697 61 569 b 138 83 61 208 89 135 l 39 -17 l 143 -17 l 194 36 b 394 -17 249 1 318 -17 b 825 382 613 -17 825 111 b 749 597 825 472 797 546 l 847 697 l 743 697 l 692 644 b 492 697 638 679 568 697 z m 481 574 b 594 547 525 574 564 564 l 239 186 b 208 299 219 215 208 253 b 481 574 208 489 349 574 z m 678 383 b 406 111 678 194 538 111 b 294 136 363 111 325 119 l 649 496 b 678 383 668 467 678 429 z "},"õ":{"ha":858,"x_min":0,"x_max":0,"o":"m 767 926 l 688 926 b 626 863 682 886 665 863 b 410 940 565 863 499 940 b 261 774 318 940 275 881 l 340 774 b 401 838 347 814 364 838 b 618 760 464 838 529 760 b 767 926 711 760 753 819 z m 825 382 b 492 697 825 586 683 697 b 61 299 275 697 61 569 b 394 -17 61 94 203 -17 b 825 382 613 -17 825 111 z m 675 382 b 407 113 675 196 538 113 b 211 299 289 113 211 176 b 481 571 211 488 349 571 b 675 382 597 571 675 506 z "},"p":{"ha":865,"x_min":0,"x_max":0,"o":"m 832 394 b 556 697 832 599 717 697 b 290 586 404 697 319 617 l 288 586 l 303 681 l 161 681 l 8 -278 l 158 -278 l 215 81 l 218 81 b 447 -17 236 56 300 -17 b 832 394 663 -17 832 136 z m 682 388 b 424 113 682 206 581 113 b 235 210 307 113 253 181 l 275 460 b 503 571 306 493 386 571 b 682 388 617 571 682 503 z "},"þ":{"ha":869,"x_min":0,"x_max":0,"o":"m 836 394 b 561 697 836 592 729 697 b 303 589 418 697 338 624 l 300 589 l 363 986 l 213 986 l 13 -278 l 163 -278 l 219 81 l 222 81 b 451 -17 242 57 307 -17 b 836 394 667 -17 836 132 z m 686 388 b 431 113 686 210 585 113 b 239 210 314 113 257 181 l 279 460 b 507 571 310 493 390 571 b 686 388 621 571 686 503 z "},"q":{"ha":869,"x_min":0,"x_max":0,"o":"m 843 681 l 703 681 l 689 593 l 686 593 b 461 697 667 619 604 697 b 61 285 251 697 61 544 b 339 -17 61 101 168 -17 b 597 90 490 -17 565 57 l 600 90 l 542 -278 l 692 -278 z m 661 472 l 622 221 b 390 113 592 188 519 113 b 211 293 276 113 211 178 b 471 571 211 474 326 571 b 661 472 594 571 643 504 z "},"r":{"ha":522,"x_min":0,"x_max":0,"o":"m 572 693 b 285 553 392 693 322 617 l 282 553 l 303 681 l 161 681 l 53 0 l 201 0 l 269 432 b 514 561 313 499 386 561 l 550 561 z "},"ŕ":{"ha":522,"x_min":0,"x_max":0,"o":"m 694 953 l 507 953 l 294 758 l 442 758 l 693 950 z m 572 693 b 285 553 392 693 322 617 l 282 553 l 303 681 l 161 681 l 53 0 l 201 0 l 269 432 b 514 561 313 499 386 561 l 550 561 z "},"ř":{"ha":522,"x_min":0,"x_max":0,"o":"m 643 956 l 519 956 l 383 843 l 381 843 l 281 956 l 161 956 l 282 761 l 460 761 z m 572 693 b 285 553 392 693 322 617 l 282 553 l 303 681 l 161 681 l 53 0 l 201 0 l 269 432 b 514 561 313 499 386 561 l 550 561 z "},"ŗ":{"ha":522,"x_min":0,"x_max":0,"o":"m 572 693 b 285 553 392 693 322 617 l 282 553 l 303 681 l 161 681 l 53 0 l 201 0 l 269 432 b 514 561 313 499 386 561 l 550 561 z m 185 -65 l 47 -65 l 29 -185 l 78 -185 b -39 -272 67 -253 19 -271 l -35 -324 b 172 -144 92 -324 150 -278 z "},"s":{"ha":682,"x_min":0,"x_max":0,"o":"m 651 636 b 407 697 614 657 551 697 b 118 500 250 697 118 629 b 319 299 118 381 196 343 b 461 186 442 254 461 232 b 300 110 461 140 417 110 b 75 185 179 110 107 161 l 29 60 b 299 -17 67 33 149 -17 b 610 197 504 -17 610 76 b 410 407 610 315 533 365 b 264 511 285 449 264 469 b 407 578 264 558 318 578 b 608 522 515 578 571 542 z "},"ś":{"ha":682,"x_min":0,"x_max":0,"o":"m 739 953 l 551 953 l 339 758 l 486 758 l 738 950 z m 651 636 b 407 697 614 657 551 697 b 118 500 250 697 118 629 b 319 299 118 381 196 343 b 461 186 442 254 461 232 b 300 110 461 140 417 110 b 75 185 179 110 107 161 l 29 60 b 299 -17 67 33 149 -17 b 610 197 504 -17 610 76 b 410 407 610 315 533 365 b 264 511 285 449 264 469 b 407 578 264 558 318 578 b 608 522 515 578 571 542 z "},"š":{"ha":682,"x_min":0,"x_max":0,"o":"m 688 956 l 564 956 l 428 843 l 425 843 l 325 956 l 206 956 l 326 761 l 504 761 z m 651 636 b 407 697 614 657 551 697 b 118 500 250 697 118 629 b 319 299 118 381 196 343 b 461 186 442 254 461 232 b 300 110 461 140 417 110 b 75 185 179 110 107 161 l 29 60 b 299 -17 67 33 149 -17 b 610 197 504 -17 610 76 b 410 407 610 315 533 365 b 264 511 285 449 264 469 b 407 578 264 558 318 578 b 608 522 515 578 571 542 z "},"ş":{"ha":682,"x_min":0,"x_max":0,"o":"m 419 -161 b 288 -69 419 -99 367 -75 l 325 -17 b 610 197 514 -8 610 82 b 410 407 610 315 533 365 b 264 511 285 449 264 469 b 407 578 264 558 318 578 b 608 522 515 578 571 542 l 651 636 b 407 697 614 657 551 697 b 118 500 250 697 118 629 b 319 299 118 381 196 343 b 461 186 442 254 461 232 b 300 110 461 140 417 110 b 75 185 179 110 107 161 l 29 60 b 238 -14 61 38 126 -3 l 158 -111 l 163 -118 b 307 -165 268 -118 307 -135 b 206 -215 307 -197 279 -215 b 104 -196 156 -215 117 -203 l 97 -268 b 219 -290 111 -275 154 -290 b 419 -161 354 -290 419 -231 z "},"ŝ":{"ha":682,"x_min":0,"x_max":0,"o":"m 656 757 l 535 951 l 357 951 l 174 757 l 297 757 l 433 869 l 436 869 l 536 757 z m 651 636 b 407 697 614 657 551 697 b 118 500 250 697 118 629 b 319 299 118 381 196 343 b 461 186 442 254 461 232 b 300 110 461 140 417 110 b 75 185 179 110 107 161 l 29 60 b 299 -17 67 33 149 -17 b 610 197 504 -17 610 76 b 410 407 610 315 533 365 b 264 511 285 449 264 469 b 407 578 264 558 318 578 b 608 522 515 578 571 542 z "},"ș":{"ha":682,"x_min":0,"x_max":0,"o":"m 651 636 b 407 697 614 657 551 697 b 118 500 250 697 118 629 b 319 299 118 381 196 343 b 461 186 442 254 461 232 b 300 110 461 140 417 110 b 75 185 179 110 107 161 l 29 60 b 299 -17 67 33 149 -17 b 610 197 504 -17 610 76 b 410 407 610 315 533 365 b 264 511 285 449 264 469 b 407 578 264 558 318 578 b 608 522 515 578 571 542 z m 354 -65 l 217 -65 l 199 -185 l 247 -185 b 131 -272 236 -253 189 -271 l 135 -324 b 342 -144 261 -324 319 -278 z "},"ß":{"ha":956,"x_min":0,"x_max":0,"o":"m 815 800 b 553 1003 815 918 719 1003 b 163 658 372 1003 203 908 l 57 0 l 206 0 l 310 653 b 544 878 336 817 435 878 b 674 782 635 878 674 839 b 446 486 674 665 446 653 b 633 299 446 379 518 344 b 768 186 749 251 768 228 b 607 110 768 142 721 110 b 386 183 490 110 422 157 l 342 56 b 606 -17 381 32 456 -17 b 917 196 814 -17 917 81 b 728 406 917 306 846 360 b 590 507 611 451 589 467 b 815 800 590 592 815 608 z "},"t":{"ha":557,"x_min":0,"x_max":0,"o":"m 376 833 l 229 833 l 204 681 l 100 681 l 81 557 l 185 557 l 142 285 b 133 181 135 240 133 207 b 342 -12 133 44 217 -12 b 474 13 414 -12 458 4 l 479 135 b 382 118 469 131 438 118 b 283 217 311 118 283 150 b 292 297 283 238 288 274 l 333 557 l 551 557 l 571 681 l 353 681 z "},"ŧ":{"ha":557,"x_min":0,"x_max":0,"o":"m 506 411 l 310 411 l 333 557 l 551 557 l 571 681 l 353 681 l 376 833 l 229 833 l 204 681 l 100 681 l 81 557 l 185 557 l 161 411 l 71 411 l 57 329 l 149 329 l 142 285 b 133 181 135 240 133 207 b 342 -12 133 44 217 -12 b 474 13 414 -12 458 4 l 479 135 b 382 118 469 131 438 118 b 283 217 311 118 283 150 b 292 297 283 238 288 274 l 297 329 l 492 329 z "},"ť":{"ha":579,"x_min":0,"x_max":0,"o":"m 738 986 l 576 986 l 458 779 l 581 779 l 738 983 z m 376 833 l 229 833 l 204 681 l 100 681 l 81 557 l 185 557 l 142 285 b 133 181 135 240 133 207 b 342 -12 133 44 217 -12 b 474 13 414 -12 458 4 l 479 135 b 382 118 469 131 438 118 b 283 217 311 118 283 150 b 292 297 283 238 288 274 l 333 557 l 551 557 l 571 681 l 353 681 z "},"ţ":{"ha":557,"x_min":0,"x_max":0,"o":"m 376 833 l 229 833 l 204 681 l 100 681 l 81 557 l 185 557 l 142 285 b 133 181 135 240 133 207 b 342 -12 133 44 217 -12 b 474 13 414 -12 458 4 l 479 135 b 382 118 469 131 438 118 b 283 217 311 118 283 150 b 292 297 283 238 288 274 l 333 557 l 551 557 l 571 681 l 353 681 z m 333 -65 l 196 -65 l 178 -185 l 226 -185 b 110 -272 215 -253 168 -271 l 114 -324 b 321 -144 240 -324 299 -278 z "},"ț":{"ha":557,"x_min":0,"x_max":0,"o":"m 376 833 l 229 833 l 204 681 l 100 681 l 81 557 l 185 557 l 142 285 b 133 181 135 240 133 207 b 342 -12 133 44 217 -12 b 474 13 414 -12 458 4 l 479 135 b 382 118 469 131 438 118 b 283 217 311 118 283 150 b 292 297 283 238 288 274 l 333 557 l 551 557 l 571 681 l 353 681 z m 333 -65 l 196 -65 l 178 -185 l 226 -185 b 110 -272 215 -253 168 -271 l 114 -324 b 321 -144 240 -324 299 -278 z "},"u":{"ha":876,"x_min":0,"x_max":0,"o":"m 850 681 l 701 681 l 628 217 b 390 113 597 185 508 113 b 247 256 296 113 247 156 b 256 344 247 276 250 304 l 310 681 l 161 681 l 108 344 b 96 214 100 292 96 244 b 329 -17 96 58 194 -17 b 613 96 476 -17 572 57 l 615 96 l 601 0 l 743 0 z "},"ú":{"ha":876,"x_min":0,"x_max":0,"o":"m 836 953 l 649 953 l 436 758 l 583 758 l 835 950 z m 850 681 l 701 681 l 628 217 b 390 113 597 185 508 113 b 247 256 296 113 247 156 b 256 344 247 276 250 304 l 310 681 l 161 681 l 108 344 b 96 214 100 292 96 244 b 329 -17 96 58 194 -17 b 613 96 476 -17 572 57 l 615 96 l 601 0 l 743 0 z "},"ŭ":{"ha":876,"x_min":0,"x_max":0,"o":"m 756 944 l 661 944 b 524 856 646 896 608 856 b 419 931 463 856 419 881 l 419 944 l 324 944 b 322 911 322 933 322 924 b 513 757 322 819 388 757 b 756 944 668 757 738 850 z m 850 681 l 701 681 l 628 217 b 390 113 597 185 508 113 b 247 256 296 113 247 156 b 256 344 247 276 250 304 l 310 681 l 161 681 l 108 344 b 96 214 100 292 96 244 b 329 -17 96 58 194 -17 b 613 96 476 -17 572 57 l 615 96 l 601 0 l 743 0 z "},"û":{"ha":876,"x_min":0,"x_max":0,"o":"m 753 757 l 632 951 l 454 951 l 271 757 l 394 757 l 531 869 l 533 869 l 633 757 z m 850 681 l 701 681 l 628 217 b 390 113 597 185 508 113 b 247 256 296 113 247 156 b 256 344 247 276 250 304 l 310 681 l 161 681 l 108 344 b 96 214 100 292 96 244 b 329 -17 96 58 194 -17 b 613 96 476 -17 572 57 l 615 96 l 601 0 l 743 0 z "},"ü":{"ha":876,"x_min":0,"x_max":0,"o":"m 488 924 l 343 924 l 322 785 l 467 785 z m 731 924 l 588 924 l 565 785 l 710 785 z m 850 681 l 701 681 l 628 217 b 390 113 597 185 508 113 b 247 256 296 113 247 156 b 256 344 247 276 250 304 l 310 681 l 161 681 l 108 344 b 96 214 100 292 96 244 b 329 -17 96 58 194 -17 b 613 96 476 -17 572 57 l 615 96 l 601 0 l 743 0 z "},"ù":{"ha":876,"x_min":0,"x_max":0,"o":"m 582 758 l 432 953 l 249 953 l 249 950 l 440 758 z m 850 681 l 701 681 l 628 217 b 390 113 597 185 508 113 b 247 256 296 113 247 156 b 256 344 247 276 250 304 l 310 681 l 161 681 l 108 344 b 96 214 100 292 96 244 b 329 -17 96 58 194 -17 b 613 96 476 -17 572 57 l 615 96 l 601 0 l 743 0 z "},"ű":{"ha":876,"x_min":0,"x_max":0,"o":"m 674 953 l 529 953 l 335 758 l 453 758 l 674 950 z m 901 953 l 757 953 l 563 758 l 682 758 l 901 950 z m 850 681 l 701 681 l 628 217 b 390 113 597 185 508 113 b 247 256 296 113 247 156 b 256 344 247 276 250 304 l 310 681 l 161 681 l 108 344 b 96 214 100 292 96 244 b 329 -17 96 58 194 -17 b 613 96 476 -17 572 57 l 615 96 l 601 0 l 743 0 z "},"ū":{"ha":876,"x_min":0,"x_max":0,"o":"m 786 893 l 282 893 l 265 789 l 769 789 z m 850 681 l 701 681 l 628 217 b 390 113 597 185 508 113 b 247 256 296 113 247 156 b 256 344 247 276 250 304 l 310 681 l 161 681 l 108 344 b 96 214 100 292 96 244 b 329 -17 96 58 194 -17 b 613 96 476 -17 572 57 l 615 96 l 601 0 l 743 0 z "},"ų":{"ha":876,"x_min":0,"x_max":0,"o":"m 750 -164 b 672 -181 739 -169 714 -181 b 611 -128 629 -181 611 -162 b 696 0 611 -72 660 -26 l 743 0 l 850 681 l 701 681 l 628 217 b 390 113 597 185 508 113 b 247 256 296 113 247 156 b 256 344 247 276 250 304 l 310 681 l 161 681 l 108 344 b 96 214 100 292 96 244 b 329 -17 96 58 194 -17 b 613 96 476 -17 572 57 l 615 96 l 603 11 b 468 -183 553 -21 468 -86 b 615 -290 468 -257 517 -290 b 742 -265 681 -290 725 -272 z "},"ů":{"ha":876,"x_min":0,"x_max":0,"o":"m 683 889 b 549 997 683 956 633 997 b 375 856 446 997 375 940 b 510 749 375 789 425 749 b 683 889 613 749 683 804 z m 601 881 b 521 819 601 846 572 819 b 457 864 479 819 457 838 b 538 925 457 899 486 925 b 601 881 579 925 601 907 z m 850 681 l 701 681 l 628 217 b 390 113 597 185 508 113 b 247 256 296 113 247 156 b 256 344 247 276 250 304 l 310 681 l 161 681 l 108 344 b 96 214 100 292 96 244 b 329 -17 96 58 194 -17 b 613 96 476 -17 572 57 l 615 96 l 601 0 l 743 0 z "},"ũ":{"ha":876,"x_min":0,"x_max":0,"o":"m 779 926 l 700 926 b 639 863 694 886 678 863 b 422 940 578 863 511 940 b 274 774 331 940 288 881 l 353 774 b 414 838 360 814 376 838 b 631 760 476 838 542 760 b 779 926 724 760 765 819 z m 850 681 l 701 681 l 628 217 b 390 113 597 185 508 113 b 247 256 296 113 247 156 b 256 344 247 276 250 304 l 310 681 l 161 681 l 108 344 b 96 214 100 292 96 244 b 329 -17 96 58 194 -17 b 613 96 476 -17 572 57 l 615 96 l 601 0 l 743 0 z "},"v":{"ha":781,"x_min":0,"x_max":0,"o":"m 840 681 l 676 681 l 378 182 l 375 182 l 233 681 l 74 681 l 285 0 l 413 0 z "},"w":{"ha":1161,"x_min":0,"x_max":0,"o":"m 1206 681 l 1049 681 l 835 201 l 832 201 l 706 681 l 583 681 l 307 201 l 304 201 l 242 681 l 90 681 l 194 0 l 331 0 l 615 485 l 618 485 l 747 0 l 886 0 z "},"ẃ":{"ha":1161,"x_min":0,"x_max":0,"o":"m 974 953 l 786 953 l 574 758 l 721 758 l 972 950 z m 1206 681 l 1049 681 l 835 201 l 832 201 l 706 681 l 583 681 l 307 201 l 304 201 l 242 681 l 90 681 l 194 0 l 331 0 l 615 485 l 618 485 l 747 0 l 886 0 z "},"ŵ":{"ha":1161,"x_min":0,"x_max":0,"o":"m 890 757 l 769 951 l 592 951 l 408 757 l 532 757 l 668 869 l 671 869 l 771 757 z m 1206 681 l 1049 681 l 835 201 l 832 201 l 706 681 l 583 681 l 307 201 l 304 201 l 242 681 l 90 681 l 194 0 l 331 0 l 615 485 l 618 485 l 747 0 l 886 0 z "},"ẅ":{"ha":1161,"x_min":0,"x_max":0,"o":"m 625 924 l 481 924 l 460 785 l 604 785 z m 868 924 l 725 924 l 703 785 l 847 785 z m 1206 681 l 1049 681 l 835 201 l 832 201 l 706 681 l 583 681 l 307 201 l 304 201 l 242 681 l 90 681 l 194 0 l 331 0 l 615 485 l 618 485 l 747 0 l 886 0 z "},"ẁ":{"ha":1161,"x_min":0,"x_max":0,"o":"m 719 758 l 569 953 l 386 953 l 386 950 l 578 758 z m 1206 681 l 1049 681 l 835 201 l 832 201 l 706 681 l 583 681 l 307 201 l 304 201 l 242 681 l 90 681 l 194 0 l 331 0 l 615 485 l 618 485 l 747 0 l 886 0 z "},"x":{"ha":776,"x_min":0,"x_max":0,"o":"m 806 681 l 628 681 l 426 449 l 424 449 l 276 681 l 106 681 l 315 356 l -21 0 l 156 0 l 383 254 l 386 254 l 543 0 l 717 0 l 490 347 z "},"ẋ":{"ha":776,"x_min":0,"x_max":0,"o":"m 561 924 l 410 924 l 386 778 l 538 778 z m 806 681 l 628 681 l 426 449 l 424 449 l 276 681 l 106 681 l 315 356 l -21 0 l 156 0 l 383 254 l 386 254 l 543 0 l 717 0 l 490 347 z "},"y":{"ha":789,"x_min":0,"x_max":0,"o":"m 850 681 l 689 681 l 393 181 l 390 181 l 244 681 l 85 681 l 290 31 b -42 -154 218 -89 128 -154 l -51 -286 b 463 53 208 -286 308 -199 z "},"ý":{"ha":789,"x_min":0,"x_max":0,"o":"m 794 953 l 607 953 l 394 758 l 542 758 l 793 950 z m 850 681 l 689 681 l 393 181 l 390 181 l 244 681 l 85 681 l 290 31 b -42 -154 218 -89 128 -154 l -51 -286 b 463 53 208 -286 308 -199 z "},"ŷ":{"ha":789,"x_min":0,"x_max":0,"o":"m 711 757 l 590 951 l 413 951 l 229 757 l 353 757 l 489 869 l 492 869 l 592 757 z m 850 681 l 689 681 l 393 181 l 390 181 l 244 681 l 85 681 l 290 31 b -42 -154 218 -89 128 -154 l -51 -286 b 463 53 208 -286 308 -199 z "},"ÿ":{"ha":789,"x_min":0,"x_max":0,"o":"m 446 924 l 301 924 l 281 785 l 425 785 z m 689 924 l 546 924 l 524 785 l 668 785 z m 850 681 l 689 681 l 393 181 l 390 181 l 244 681 l 85 681 l 290 31 b -42 -154 218 -89 128 -154 l -51 -286 b 463 53 208 -286 308 -199 z "},"ỳ":{"ha":789,"x_min":0,"x_max":0,"o":"m 540 758 l 390 953 l 207 953 l 207 950 l 399 758 z m 850 681 l 689 681 l 393 181 l 390 181 l 244 681 l 85 681 l 290 31 b -42 -154 218 -89 128 -154 l -51 -286 b 463 53 208 -286 308 -199 z "},"z":{"ha":756,"x_min":0,"x_max":0,"o":"m 763 681 l 140 681 l 122 561 l 531 561 l 531 558 l 32 96 l 18 0 l 667 0 l 686 126 l 264 126 l 264 128 l 747 585 z "},"ź":{"ha":756,"x_min":0,"x_max":0,"o":"m 782 953 l 594 953 l 382 758 l 529 758 l 781 950 z m 763 681 l 140 681 l 122 561 l 531 561 l 531 558 l 32 96 l 18 0 l 667 0 l 686 126 l 264 126 l 264 128 l 747 585 z "},"ž":{"ha":756,"x_min":0,"x_max":0,"o":"m 731 956 l 607 956 l 471 843 l 468 843 l 368 956 l 249 956 l 369 761 l 547 761 z m 763 681 l 140 681 l 122 561 l 531 561 l 531 558 l 32 96 l 18 0 l 667 0 l 686 126 l 264 126 l 264 128 l 747 585 z "},"ż":{"ha":756,"x_min":0,"x_max":0,"o":"m 560 924 l 408 924 l 385 778 l 536 778 z m 763 681 l 140 681 l 122 561 l 531 561 l 531 558 l 32 96 l 18 0 l 667 0 l 686 126 l 264 126 l 264 128 l 747 585 z "},"ƶ":{"ha":756,"x_min":0,"x_max":0,"o":"m 140 388 l 126 308 l 263 308 l 32 96 l 18 0 l 667 0 l 686 126 l 258 126 l 258 128 l 451 308 l 658 308 l 672 388 l 536 388 l 747 585 l 763 681 l 142 681 l 122 561 l 535 561 l 535 558 l 349 388 z "},"´":{"ha":483,"x_min":0,"x_max":0,"o":"m 542 953 l 354 953 l 142 758 l 289 758 l 540 950 z "},"˘":{"ha":568,"x_min":0,"x_max":0,"o":"m 608 944 l 514 944 b 376 856 499 896 461 856 b 272 931 315 856 272 881 l 272 944 l 176 944 b 175 911 175 933 175 924 b 365 757 175 819 240 757 b 608 944 521 757 590 850 z "},"ˇ":{"ha":611,"x_min":0,"x_max":0,"o":"m 658 956 l 535 956 l 399 843 l 396 843 l 296 956 l 176 956 l 297 761 l 475 761 z "},"¸":{"ha":454,"x_min":0,"x_max":0,"o":"m 319 -161 b 188 -69 319 -99 267 -75 l 244 11 l 158 11 l 58 -111 l 63 -118 b 207 -165 168 -118 207 -135 b 106 -215 207 -197 179 -215 b 4 -196 56 -215 17 -203 l -3 -268 b 119 -290 11 -275 54 -290 b 319 -161 254 -290 319 -231 z "},"ˆ":{"ha":611,"x_min":0,"x_max":0,"o":"m 626 757 l 506 951 l 328 951 l 144 757 l 268 757 l 404 869 l 407 869 l 507 757 z "},"":{"ha":326,"x_min":0,"x_max":0,"o":"m 207 -65 l 69 -65 l 51 -185 l 100 -185 b -17 -272 89 -253 42 -271 l -12 -324 b 194 -144 114 -324 172 -278 z "},"¨":{"ha":533,"x_min":0,"x_max":0,"o":"m 322 924 l 178 924 l 157 785 l 301 785 z m 565 924 l 422 924 l 400 785 l 544 785 z "},"˙":{"ha":292,"x_min":0,"x_max":0,"o":"m 329 924 l 178 924 l 154 778 l 306 778 z "},"`":{"ha":483,"x_min":0,"x_max":0,"o":"m 496 758 l 346 953 l 163 953 l 163 950 l 354 758 z "},"˝":{"ha":639,"x_min":0,"x_max":0,"o":"m 482 953 l 338 953 l 143 758 l 261 758 l 482 950 z m 710 953 l 565 953 l 371 758 l 490 758 l 710 950 z "},"¯":{"ha":536,"x_min":0,"x_max":0,"o":"m 619 893 l 115 893 l 99 789 l 603 789 z "},"˛":{"ha":432,"x_min":0,"x_max":0,"o":"m 283 -164 b 206 -181 272 -169 247 -181 b 144 -128 163 -181 144 -162 b 249 14 144 -60 217 -7 l 163 28 b 1 -183 126 6 1 -65 b 149 -290 1 -257 50 -290 b 275 -265 214 -290 258 -272 z "},"˚":{"ha":439,"x_min":0,"x_max":0,"o":"m 471 889 b 336 997 471 956 421 997 b 163 856 233 997 163 940 b 297 749 163 789 213 749 b 471 889 400 749 471 804 z m 389 881 b 308 819 389 846 360 819 b 244 864 267 819 244 838 b 325 925 244 899 274 925 b 389 881 367 925 389 907 z "},"˜":{"ha":635,"x_min":0,"x_max":0,"o":"m 664 926 l 585 926 b 524 863 579 886 563 863 b 307 940 463 863 396 940 b 158 774 215 940 172 881 l 238 774 b 299 838 244 814 261 838 b 515 760 361 838 426 760 b 664 926 608 760 650 819 z "},"|":{"ha":379,"x_min":0,"x_max":0,"o":"m 367 986 l 244 986 l 63 -167 l 185 -167 z "},"¦":{"ha":379,"x_min":0,"x_max":0,"o":"m 367 986 l 244 986 l 164 476 l 286 476 z m 265 343 l 143 343 l 63 -167 l 185 -167 z "},"/":{"ha":685,"x_min":0,"x_max":0,"o":"m 786 986 l 646 986 l -92 -167 l 47 -167 z "},"\\":{"ha":675,"x_min":0,"x_max":0,"o":"m 257 986 l 129 986 l 506 -167 l 633 -167 z "},",":{"ha":344,"x_min":0,"x_max":0,"o":"m 240 168 l 75 168 l 50 0 l 118 0 b -32 -143 103 -101 49 -140 l -36 -204 b 222 43 107 -204 192 -150 z "},".":{"ha":344,"x_min":0,"x_max":0,"o":"m 240 168 l 75 168 l 50 0 l 215 0 z "},";":{"ha":344,"x_min":0,"x_max":0,"o":"m 322 681 l 157 681 l 132 513 l 297 513 z m 240 168 l 75 168 l 50 0 l 118 0 b -32 -143 103 -101 49 -140 l -36 -204 b 222 43 107 -204 192 -150 z "},":":{"ha":344,"x_min":0,"x_max":0,"o":"m 322 681 l 157 681 l 132 513 l 297 513 z m 240 168 l 75 168 l 50 0 l 215 0 z "}," ":{"ha":344,"x_min":0,"x_max":0,"o":""},"·":{"ha":344,"x_min":0,"x_max":0,"o":"m 296 518 l 131 518 l 106 350 l 271 350 z "},"⋅":{"ha":344,"x_min":0,"x_max":0,"o":"m 296 518 l 131 518 l 106 350 l 271 350 z "},"…":{"ha":1271,"x_min":0,"x_max":0,"o":"m 292 167 l 128 167 l 101 0 l 265 0 z m 704 167 l 539 167 l 514 0 l 678 0 z m 1115 167 l 951 167 l 925 0 l 1090 0 z "},"!":{"ha":397,"x_min":0,"x_max":0,"o":"m 407 958 l 243 958 l 150 257 l 279 257 z m 282 167 l 118 167 l 92 0 l 257 0 z "},"¡":{"ha":397,"x_min":0,"x_max":0,"o":"m 139 514 l 303 514 l 329 681 l 164 681 z m 14 -278 l 178 -278 l 271 424 l 142 424 z "},"?":{"ha":635,"x_min":0,"x_max":0,"o":"m 696 769 b 436 975 696 897 613 975 b 119 875 271 975 163 906 l 161 765 b 403 844 203 797 290 844 b 542 743 499 844 542 807 b 207 371 542 579 207 565 b 247 257 207 314 233 275 l 381 257 l 381 260 b 342 350 367 276 342 308 b 696 769 342 500 696 496 z m 375 167 l 211 167 l 185 0 l 350 0 z "},"¿":{"ha":619,"x_min":0,"x_max":0,"o":"m 290 514 l 454 514 l 481 681 l 315 681 z m -31 -89 b 229 -294 -31 -217 53 -294 b 546 -194 394 -294 503 -225 l 504 -85 b 263 -164 463 -117 375 -164 b 124 -62 167 -164 124 -126 b 458 310 124 101 458 115 b 418 424 458 367 432 406 l 285 424 l 285 421 b 324 331 299 404 324 372 b -31 -89 324 181 -31 185 z "},"&":{"ha":1051,"x_min":0,"x_max":0,"o":"m 54 228 b 356 -17 54 76 156 -17 b 731 86 504 -17 628 17 l 813 0 l 994 0 l 994 3 l 832 174 b 1019 526 911 261 974 378 l 904 581 b 743 269 865 453 811 347 l 593 428 b 558 464 581 440 569 453 b 803 746 706 524 803 588 b 549 975 803 879 710 975 b 251 719 354 975 251 864 b 336 507 251 636 283 572 b 54 228 190 458 54 392 z m 399 722 b 542 851 399 796 447 851 b 663 728 618 851 663 799 b 479 547 663 631 601 594 b 399 722 429 604 399 656 z m 207 242 b 413 421 207 344 296 382 b 461 369 428 404 444 388 l 642 181 b 383 108 568 133 482 108 b 207 242 263 108 207 153 z "},"@":{"ha":1351,"x_min":0,"x_max":0,"o":"m 1328 500 b 832 886 1328 742 1160 886 b 69 214 417 886 69 657 b 599 -225 69 -87 276 -225 b 1019 -144 847 -225 978 -164 l 1001 -35 b 618 -106 964 -53 828 -106 b 208 224 358 -106 208 -4 b 815 768 208 574 474 768 b 1193 490 1074 768 1193 681 b 1024 158 1193 293 1114 158 b 968 219 983 158 968 179 b 979 332 968 249 971 275 l 1022 601 l 896 601 l 886 540 l 883 540 b 701 614 865 563 824 614 b 385 282 551 614 385 499 b 618 47 385 125 479 47 b 842 142 758 47 818 114 l 844 142 b 990 47 863 83 910 47 b 1328 500 1186 47 1328 229 z m 518 294 b 719 506 518 432 613 506 b 865 432 813 506 849 460 l 846 314 b 838 238 842 288 839 263 b 653 156 810 207 758 156 b 518 294 569 156 518 200 z "},"*":{"ha":608,"x_min":0,"x_max":0,"o":"m 186 901 l 122 824 l 294 699 l 92 633 l 129 538 l 322 625 l 278 417 l 379 400 l 401 613 l 558 469 l 622 549 l 450 674 l 653 739 l 615 835 l 424 749 l 467 956 l 365 972 l 343 760 z "},"§":{"ha":801,"x_min":0,"x_max":0,"o":"m 93 438 b 326 225 93 318 175 271 b 506 104 478 179 506 154 b 346 7 506 53 454 7 b 140 68 233 7 172 44 l 96 -51 b 336 -117 132 -75 206 -117 b 650 117 538 -117 650 -15 b 610 239 650 165 638 206 b 765 451 699 278 765 339 b 538 656 765 564 685 614 b 367 765 390 699 367 717 b 521 856 367 817 414 856 b 703 813 608 856 671 829 l 743 925 b 522 975 703 947 639 975 b 229 754 346 975 229 882 b 257 650 229 713 239 679 b 93 438 167 611 93 549 z m 432 340 b 233 469 281 383 233 406 b 335 586 233 522 282 561 b 436 544 363 571 396 557 b 625 413 582 499 625 476 b 532 301 625 365 586 325 b 432 340 504 315 471 329 z "},"†":{"ha":726,"x_min":0,"x_max":0,"o":"m 756 713 l 497 713 l 535 958 l 413 958 l 374 713 l 115 713 l 99 607 l 357 607 l 246 -100 l 368 -100 l 481 607 l 740 607 z "},"‡":{"ha":726,"x_min":0,"x_max":0,"o":"m 756 713 l 497 713 l 536 958 l 414 958 l 374 713 l 115 713 l 99 607 l 357 607 l 324 400 l 107 400 l 90 293 l 307 293 l 246 -100 l 368 -100 l 431 293 l 649 293 l 665 400 l 447 400 l 481 607 l 740 607 z "},"¶":{"ha":913,"x_min":0,"x_max":0,"o":"m 710 958 l 467 958 b 117 679 267 958 117 875 b 365 479 117 549 213 479 l 513 479 l 436 0 l 558 0 z m 918 958 l 796 958 l 644 0 l 767 0 z "},"©":{"ha":1113,"x_min":0,"x_max":0,"o":"m 1100 551 b 657 975 1100 824 919 975 b 82 407 333 975 82 761 b 525 -17 82 135 264 -17 b 1100 551 849 -17 1100 197 z m 994 550 b 538 79 994 258 808 79 b 188 408 317 79 188 199 b 644 879 188 700 375 879 b 994 550 865 879 994 760 z m 296 443 b 563 199 296 283 397 199 b 786 260 686 199 754 239 l 767 344 b 579 294 739 326 674 294 b 406 453 469 294 406 343 b 650 669 406 597 521 669 b 813 624 739 669 789 640 l 847 711 b 651 765 825 728 760 765 b 296 443 483 765 296 660 z "},"℗":{"ha":1113,"x_min":0,"x_max":0,"o":"m 1100 551 b 657 975 1100 824 919 975 b 82 407 333 975 82 761 b 525 -17 82 135 264 -17 b 1100 551 849 -17 1100 197 z m 994 550 b 538 79 994 258 808 79 b 188 408 317 79 188 199 b 644 879 188 700 375 879 b 994 550 865 879 994 760 z m 888 592 b 657 756 888 696 814 756 l 442 756 l 356 208 l 464 208 l 490 379 l 597 379 b 888 592 788 379 888 461 z m 781 579 b 599 469 781 507 719 469 l 504 469 l 535 663 l 633 663 b 781 579 733 663 781 636 z "},"®":{"ha":743,"x_min":0,"x_max":0,"o":"m 760 710 b 485 967 760 871 654 967 b 111 607 274 967 111 833 b 385 350 111 446 217 350 b 760 710 597 350 760 483 z m 689 703 b 393 418 689 526 575 418 b 181 614 256 418 181 489 b 476 899 181 790 296 899 b 689 703 614 899 689 828 z m 574 514 l 511 621 b 594 731 565 640 594 681 b 461 818 594 792 553 818 l 329 818 l 281 514 l 351 514 l 365 608 l 428 608 b 442 608 432 608 438 608 l 490 514 z m 522 721 b 429 665 522 685 494 665 l 375 665 l 390 760 l 447 760 b 522 721 503 760 522 747 z "},"℠":{"ha":1418,"x_min":0,"x_max":0,"o":"m 310 469 b 126 525 214 469 154 503 l 93 432 b 315 374 128 406 194 374 b 582 553 485 374 582 449 b 415 713 582 640 524 679 b 269 804 293 751 269 764 b 415 874 269 847 321 874 b 576 831 503 874 551 847 l 611 921 b 419 968 583 938 535 968 b 161 793 254 968 161 897 b 328 632 161 700 228 664 b 469 540 440 596 469 581 b 310 469 469 494 413 469 z m 1440 958 l 1306 958 l 1013 510 l 1011 510 l 860 958 l 728 958 l 638 383 l 744 383 l 807 769 l 808 769 l 943 383 l 1043 383 l 1301 769 l 1303 769 l 1240 383 l 1350 383 z "},"™":{"ha":1483,"x_min":0,"x_max":0,"o":"m 728 958 l 144 958 l 131 863 l 365 863 l 289 383 l 401 383 l 476 863 l 714 863 z m 1506 958 l 1372 958 l 1078 510 l 1076 510 l 925 958 l 793 958 l 703 383 l 810 383 l 872 769 l 874 769 l 1007 383 l 1108 383 l 1367 769 l 1368 769 l 1306 383 l 1415 383 z "},"ª":{"ha":603,"x_min":0,"x_max":0,"o":"m 643 958 l 528 958 l 519 908 l 518 908 b 371 968 504 924 467 968 b 114 700 242 968 114 878 b 296 501 114 576 190 501 b 465 576 407 501 450 556 l 467 576 l 457 513 l 572 513 z m 499 813 l 476 667 b 338 600 458 647 419 600 b 235 711 276 600 235 638 b 389 869 235 819 311 869 b 499 813 461 869 489 829 z "},"º":{"ha":586,"x_min":0,"x_max":0,"o":"m 625 765 b 404 967 625 894 532 967 b 114 701 258 967 114 882 b 335 500 114 572 207 500 b 625 765 481 500 625 585 z m 503 760 b 346 599 503 646 425 599 b 236 708 278 599 236 636 b 393 868 236 821 314 868 b 503 760 461 868 503 832 z "},"•":{"ha":521,"x_min":0,"x_max":0,"o":"m 89 421 b 286 221 89 301 165 221 b 485 421 406 221 485 301 b 286 621 485 540 406 621 b 89 421 165 621 89 540 z "},"∙":{"ha":521,"x_min":0,"x_max":0,"o":"m 89 421 b 286 221 89 301 165 221 b 485 421 406 221 485 301 b 286 621 485 540 406 621 b 89 421 165 621 89 540 z "},"‚":{"ha":319,"x_min":0,"x_max":0,"o":"m 231 151 l 81 151 l 57 0 l 114 0 b -18 -118 100 -89 58 -115 l -15 -181 b 213 42 110 -181 186 -132 z "},"‘":{"ha":319,"x_min":0,"x_max":0,"o":"m 135 635 l 285 635 l 308 786 l 251 786 b 383 904 265 875 307 901 l 381 967 b 153 744 256 967 179 918 z "},"ʻ":{"ha":319,"x_min":0,"x_max":0,"o":"m 135 635 l 285 635 l 308 786 l 251 786 b 383 904 265 875 307 901 l 381 967 b 153 744 256 967 179 918 z "},"’":{"ha":319,"x_min":0,"x_max":0,"o":"m 358 958 l 208 958 l 185 807 l 242 807 b 110 689 228 718 186 692 l 113 626 b 340 849 238 626 314 675 z "},"„":{"ha":554,"x_min":0,"x_max":0,"o":"m 231 151 l 81 151 l 57 0 l 114 0 b -18 -118 100 -89 58 -115 l -15 -181 b 213 42 110 -181 186 -132 z m 465 151 l 315 151 l 292 0 l 349 0 b 217 -118 335 -89 293 -115 l 219 -181 b 447 42 344 -181 421 -132 z "},"“":{"ha":554,"x_min":0,"x_max":0,"o":"m 135 635 l 285 635 l 308 786 l 251 786 b 383 904 265 875 307 901 l 381 967 b 153 744 256 967 179 918 z m 368 635 l 518 635 l 542 786 l 485 786 b 617 904 499 875 540 901 l 614 967 b 386 744 489 967 413 918 z "},"”":{"ha":554,"x_min":0,"x_max":0,"o":"m 358 958 l 208 958 l 185 807 l 242 807 b 110 689 228 718 186 692 l 113 626 b 340 849 238 626 314 675 z m 593 958 l 443 958 l 419 807 l 476 807 b 344 689 463 718 421 692 l 347 626 b 575 849 472 626 549 675 z "},"'":{"ha":331,"x_min":0,"x_max":0,"o":"m 344 958 l 213 958 l 163 640 l 271 640 z "},"\"":{"ha":528,"x_min":0,"x_max":0,"o":"m 344 958 l 213 958 l 163 640 l 271 640 z m 542 958 l 410 958 l 360 640 l 468 640 z "},"^":{"ha":785,"x_min":0,"x_max":0,"o":"m 775 474 l 554 958 l 456 958 l 81 474 l 231 474 l 481 800 l 483 800 l 633 474 z "},"°":{"ha":563,"x_min":0,"x_max":0,"o":"m 600 733 b 358 975 600 882 500 975 b 117 733 217 975 117 882 b 358 489 117 582 217 489 b 600 733 500 489 600 582 z m 482 733 b 358 604 482 653 433 604 b 235 733 282 604 235 653 b 358 860 235 811 282 860 b 482 733 433 860 482 811 z "},"#":{"ha":983,"x_min":0,"x_max":0,"o":"m 979 719 l 821 719 l 860 958 l 750 958 l 701 719 l 428 719 l 467 958 l 357 958 l 308 719 l 149 714 l 136 613 l 293 613 l 253 356 l 92 350 l 78 247 l 236 247 l 196 0 l 306 0 l 356 247 l 628 247 l 588 0 l 697 0 l 747 247 l 907 254 l 922 356 l 763 356 l 806 613 l 965 618 z m 686 613 l 643 356 l 369 356 l 413 613 z "},"%":{"ha":1169,"x_min":0,"x_max":0,"o":"m 632 767 b 417 975 632 899 547 975 b 125 700 254 975 125 868 b 342 493 125 568 208 493 b 632 767 503 493 632 600 z m 1199 958 l 1046 958 l 40 0 l 194 0 z m 513 760 b 354 596 513 658 444 596 b 243 708 283 596 243 636 b 403 872 243 810 311 872 b 513 760 475 872 513 832 z m 1117 260 b 901 467 1117 390 1032 467 b 608 192 739 467 608 360 b 825 -15 608 61 693 -15 b 1117 260 988 -15 1117 92 z m 997 251 b 839 88 997 150 929 88 b 728 200 768 88 728 128 b 888 364 728 301 797 364 b 997 251 960 364 997 324 z "},"‰":{"ha":1672,"x_min":0,"x_max":0,"o":"m 621 767 b 411 975 621 899 539 975 b 125 700 249 975 125 864 b 336 493 125 568 207 493 b 621 767 497 493 621 604 z m 1178 958 l 1025 958 l 21 0 l 174 0 z m 501 760 b 349 596 501 663 439 596 b 244 708 282 596 244 636 b 397 872 244 804 307 872 b 501 760 465 872 501 832 z m 1075 258 b 865 465 1075 390 993 465 b 581 192 704 465 581 354 b 792 -17 581 60 663 -17 b 1075 258 953 -17 1075 94 z m 1621 258 b 1411 465 1621 390 1539 465 b 1125 192 1249 465 1125 354 b 1336 -17 1125 60 1207 -17 b 1621 258 1497 -17 1621 94 z m 957 250 b 804 86 957 154 894 86 b 699 199 736 86 699 126 b 851 363 699 296 761 363 b 957 250 919 363 957 322 z m 1501 250 b 1349 86 1501 154 1439 86 b 1244 199 1282 86 1244 126 b 1397 363 1244 296 1307 363 b 1501 250 1465 363 1501 322 z "},"¢":{"ha":735,"x_min":0,"x_max":0,"o":"m 314 -146 l 433 -146 l 454 -14 b 668 47 563 -6 631 24 l 636 165 b 426 113 603 146 535 113 b 213 301 306 113 213 164 b 518 571 213 485 354 571 b 700 517 622 571 674 535 l 750 635 b 567 694 725 651 671 686 l 588 822 l 468 822 l 447 693 b 61 290 251 671 61 547 b 335 -14 61 96 179 4 z "},"¤":{"ha":758,"x_min":0,"x_max":0,"o":"m 57 132 l 129 56 l 235 163 b 401 111 281 131 338 111 b 568 163 465 111 522 131 l 672 56 l 746 132 l 639 238 b 683 394 667 282 683 336 b 639 551 683 453 667 507 l 746 657 l 672 733 l 568 626 b 401 678 522 658 465 678 b 235 626 338 678 281 658 l 129 733 l 57 657 l 164 551 b 119 394 136 507 119 453 b 164 238 119 336 136 282 z m 557 394 b 401 235 557 303 496 235 b 246 394 307 235 246 303 b 401 554 246 486 307 554 b 557 394 496 554 557 486 z "},"$":{"ha":783,"x_min":0,"x_max":0,"o":"m 281 -146 l 393 -146 l 413 -14 b 731 247 618 4 731 115 b 471 508 731 386 631 454 b 269 663 317 564 269 579 b 482 768 269 732 351 768 b 738 696 617 768 699 721 l 786 821 b 558 893 749 843 683 882 l 578 1024 l 465 1024 l 446 894 b 122 647 250 882 122 790 b 382 392 122 499 222 450 b 579 229 538 335 579 306 b 360 114 579 163 513 114 b 76 200 210 114 118 169 l 25 72 b 300 -15 67 42 154 -6 z "},"€":{"ha":874,"x_min":0,"x_max":0,"o":"m 749 439 l 317 439 b 326 519 318 468 322 494 l 761 519 l 776 614 l 353 614 b 676 843 414 767 539 843 b 864 775 788 843 840 796 l 921 892 b 678 975 894 915 831 975 b 200 614 488 975 279 864 l 107 614 l 92 519 l 176 519 b 167 439 172 494 169 467 l 79 439 l 64 344 l 167 344 b 506 -17 178 99 315 -17 b 788 68 678 -17 754 42 l 754 183 b 539 118 721 160 656 118 b 317 344 410 118 331 182 l 733 344 z "},"ƒ":{"ha":704,"x_min":0,"x_max":0,"o":"m 694 586 l 451 586 l 465 674 b 636 849 486 806 551 849 b 731 821 689 849 718 829 l 767 942 b 636 975 751 951 711 975 b 319 678 485 975 356 897 l 306 586 l 129 586 l 108 463 l 285 463 l 219 46 b 75 -97 204 -58 158 -97 b 3 -81 38 -97 14 -87 l -19 -207 b 72 -225 -7 -214 29 -225 b 364 38 233 -225 333 -161 l 432 463 l 675 463 z "},"£":{"ha":785,"x_min":0,"x_max":0,"o":"m 657 500 l 397 500 l 397 601 b 594 842 397 800 492 842 b 761 783 688 842 736 800 l 808 910 b 586 975 776 931 719 975 b 246 611 417 975 246 881 l 246 500 l 156 500 l 138 382 l 246 382 b 71 106 246 228 139 147 l 54 0 l 703 0 l 722 131 l 265 131 l 265 133 b 397 382 308 161 389 238 l 639 382 z "},"¥":{"ha":932,"x_min":0,"x_max":0,"o":"m 829 304 l 550 304 l 564 396 l 843 396 l 858 492 l 621 492 l 1001 958 l 821 958 l 514 567 l 511 567 l 331 958 l 153 958 l 386 492 l 151 492 l 135 396 l 413 396 l 399 304 l 121 304 l 106 208 l 383 208 l 350 0 l 503 0 l 535 208 l 813 208 z "},"∆":{"ha":1000,"x_min":0,"x_max":0,"o":"m 928 119 l 693 958 l 532 958 l 28 119 l 10 0 l 910 0 z m 769 133 l 193 133 l 589 814 l 592 814 z "},"Δ":{"ha":1000,"x_min":0,"x_max":0,"o":"m 928 119 l 693 958 l 532 958 l 28 119 l 10 0 l 910 0 z m 769 133 l 193 133 l 589 814 l 592 814 z "},"Ω":{"ha":1199,"x_min":0,"x_max":0,"o":"m 1172 599 b 714 975 1172 835 989 975 b 117 474 385 975 117 786 b 303 131 117 265 229 179 l 303 128 l 43 128 l 22 0 l 489 0 l 510 129 b 267 446 417 182 267 254 b 693 840 267 710 465 840 b 1011 556 874 840 1011 747 b 649 129 1011 282 786 197 l 629 0 l 1096 0 l 1117 128 l 854 128 l 854 131 b 1172 599 958 178 1172 290 z "},"Ω":{"ha":1199,"x_min":0,"x_max":0,"o":"m 1172 599 b 714 975 1172 835 989 975 b 117 474 385 975 117 786 b 303 131 117 265 229 179 l 303 128 l 43 128 l 22 0 l 489 0 l 510 129 b 267 446 417 182 267 254 b 693 840 267 710 465 840 b 1011 556 874 840 1011 747 b 649 129 1011 282 786 197 l 629 0 l 1096 0 l 1117 128 l 854 128 l 854 131 b 1172 599 958 178 1172 290 z "},"µ":{"ha":919,"x_min":0,"x_max":0,"o":"m 310 681 l 161 681 l 8 -278 l 156 -278 l 203 17 b 329 -17 217 6 258 -17 b 619 86 482 -17 571 42 b 764 -17 636 7 692 -17 b 851 0 814 -17 847 -3 l 864 106 b 824 99 860 104 844 99 b 764 164 786 99 764 113 b 774 246 764 176 767 203 l 844 681 l 696 681 l 626 246 b 621 207 624 232 622 218 b 400 118 581 172 506 118 b 253 324 286 118 226 163 z "},"μ":{"ha":919,"x_min":0,"x_max":0,"o":"m 310 681 l 161 681 l 8 -278 l 156 -278 l 203 17 b 329 -17 217 6 258 -17 b 619 86 482 -17 571 42 b 764 -17 636 7 692 -17 b 851 0 814 -17 847 -3 l 864 106 b 824 99 860 104 844 99 b 764 164 786 99 764 113 b 774 246 764 176 767 203 l 844 681 l 696 681 l 626 246 b 621 207 624 232 622 218 b 400 118 581 172 506 118 b 253 324 286 118 226 163 z "},"π":{"ha":1074,"x_min":0,"x_max":0,"o":"m 250 0 b 456 553 339 161 411 325 l 717 553 l 671 276 b 660 176 665 242 660 201 b 856 -17 660 36 736 -17 b 979 6 921 -17 965 -1 l 983 129 b 893 114 971 124 946 114 b 811 201 843 114 811 138 b 818 275 811 222 813 240 l 863 553 l 1069 553 l 1092 681 l 408 681 b 92 631 221 681 133 653 l 111 517 b 310 550 149 532 197 546 b 94 0 263 324 188 160 z "},"∂":{"ha":896,"x_min":0,"x_max":0,"o":"m 892 628 b 525 1003 892 868 763 1003 b 253 936 404 1003 297 963 l 285 821 b 500 868 329 844 403 868 b 742 610 660 868 742 778 b 736 518 742 578 740 547 b 507 593 690 557 617 593 b 46 221 244 593 46 453 b 315 -17 46 82 143 -17 b 892 628 629 -17 892 214 z m 196 239 b 510 469 196 382 318 469 b 710 393 615 469 675 429 b 339 115 649 211 508 115 b 196 239 246 115 196 156 z "},"∏":{"ha":1082,"x_min":0,"x_max":0,"o":"m 1167 986 l 142 986 l 124 863 l 263 863 l 90 -208 l 233 -208 l 406 863 l 865 863 l 694 -208 l 838 -208 l 1008 863 l 1150 863 z "},"∑":{"ha":833,"x_min":0,"x_max":0,"o":"m 885 986 l 168 986 l 153 886 l 528 401 l -1 -89 l -19 -208 l 738 -208 l 757 -75 l 201 -75 l 717 401 l 361 853 l 865 853 z "},"+":{"ha":853,"x_min":0,"x_max":0,"o":"m 817 494 l 528 494 l 569 753 l 440 753 l 400 494 l 113 494 l 93 372 l 381 372 l 339 107 l 467 107 l 508 372 l 797 372 z "},"±":{"ha":853,"x_min":0,"x_max":0,"o":"m 840 650 l 553 650 l 593 901 l 465 901 l 425 650 l 138 650 l 118 528 l 404 528 l 365 274 l 493 274 l 533 528 l 821 528 z m 771 207 l 67 207 l 47 83 l 751 83 z "},"−":{"ha":853,"x_min":0,"x_max":0,"o":"m 817 496 l 113 496 l 93 372 l 797 372 z "},"÷":{"ha":853,"x_min":0,"x_max":0,"o":"m 564 663 b 503 724 564 703 539 724 b 418 647 451 724 418 694 b 479 586 418 606 443 586 b 564 663 531 586 564 614 z m 817 496 l 113 496 l 93 372 l 797 372 z m 493 221 b 432 281 493 261 468 281 b 347 204 381 281 347 253 b 408 144 347 164 372 144 b 493 221 460 144 493 172 z "},"=":{"ha":853,"x_min":0,"x_max":0,"o":"m 835 611 l 131 611 l 113 494 l 817 494 z m 797 372 l 94 372 l 76 256 l 779 256 z "},"≠":{"ha":853,"x_min":0,"x_max":0,"o":"m 797 372 l 446 372 l 550 494 l 817 494 l 835 611 l 650 611 l 757 736 l 671 736 l 564 611 l 131 611 l 113 494 l 464 494 l 360 372 l 94 372 l 76 256 l 260 256 l 153 131 l 239 131 l 346 256 l 779 256 z "},"×":{"ha":853,"x_min":0,"x_max":0,"o":"m 788 654 l 715 742 l 464 519 l 288 742 l 192 654 l 371 432 l 122 213 l 196 126 l 443 346 l 622 125 l 717 213 l 538 432 z "},"~":{"ha":853,"x_min":0,"x_max":0,"o":"m 826 542 l 729 542 b 613 431 721 489 692 431 b 294 563 511 431 442 563 b 82 321 149 563 93 450 l 179 321 b 296 431 188 374 217 431 b 614 300 396 431 465 300 b 826 542 760 300 814 413 z "},"≈":{"ha":853,"x_min":0,"x_max":0,"o":"m 847 664 l 753 664 b 642 551 742 608 719 551 b 322 683 536 551 468 683 b 104 464 185 683 122 593 l 199 464 b 310 575 210 519 232 575 b 628 443 414 575 483 443 b 847 664 767 443 829 533 z m 804 399 l 710 399 b 599 288 699 344 676 288 b 281 419 494 288 425 419 b 61 200 142 419 79 329 l 156 200 b 267 311 167 256 189 311 b 586 179 372 311 440 179 b 804 399 724 179 786 269 z "},"≅":{"ha":853,"x_min":0,"x_max":0,"o":"m 863 763 l 769 763 b 657 651 758 707 736 651 b 339 783 553 651 483 783 b 121 563 200 783 138 693 l 214 563 b 325 675 225 618 247 675 b 644 543 431 675 499 543 b 863 763 783 543 846 633 z m 813 469 l 108 469 l 90 353 l 794 353 z m 775 231 l 72 231 l 54 114 l 757 114 z "},"¬":{"ha":853,"x_min":0,"x_max":0,"o":"m 817 496 l 113 496 l 93 372 l 672 372 l 643 196 l 769 196 z "},"<":{"ha":853,"x_min":0,"x_max":0,"o":"m 865 800 l 104 431 l 90 347 l 736 -22 l 757 108 l 275 381 l 275 383 l 844 657 z "},">":{"ha":853,"x_min":0,"x_max":0,"o":"m 33 -22 l 794 347 l 808 431 l 163 800 l 142 669 l 624 397 l 624 394 l 54 121 z "},"≤":{"ha":853,"x_min":0,"x_max":0,"o":"m 864 792 l 121 547 l 108 465 l 772 221 l 794 346 l 310 500 l 310 503 l 843 658 z m 765 164 l 60 164 l 42 49 l 746 49 z "},"≥":{"ha":853,"x_min":0,"x_max":0,"o":"m 71 222 l 814 465 l 826 549 l 161 793 l 140 667 l 624 514 l 624 511 l 90 356 z m 765 164 l 60 164 l 42 49 l 746 49 z "},"∞":{"ha":1289,"x_min":0,"x_max":0,"o":"m 1251 464 b 1028 685 1251 597 1165 685 b 685 535 874 685 760 599 b 392 683 621 600 543 683 b 92 392 229 683 92 574 b 315 172 92 258 179 172 b 658 322 471 172 585 257 b 953 174 722 257 801 174 b 1251 464 1114 174 1251 283 z m 1106 447 b 940 304 1106 371 1049 304 b 733 429 854 304 778 379 b 986 554 794 481 894 554 b 1106 447 1072 554 1106 508 z m 238 408 b 403 551 238 486 294 551 b 611 426 489 551 565 478 b 358 301 549 376 450 301 b 238 408 271 301 238 349 z "},"◊":{"ha":1063,"x_min":0,"x_max":0,"o":"m 1040 389 l 749 986 l 549 986 l 64 389 l 360 -208 l 560 -208 z m 865 396 l 472 -90 l 469 -90 l 242 382 l 636 868 l 639 868 z "},"√":{"ha":1131,"x_min":0,"x_max":0,"o":"m 1229 986 l 1061 986 l 544 -36 l 542 -36 l 367 500 l 68 410 l 47 272 l 254 335 l 449 -208 l 601 -208 z "},"∫":{"ha":504,"x_min":0,"x_max":0,"o":"m 585 978 b 481 1003 572 985 538 1003 b 197 618 326 1003 197 938 l 197 144 b 60 -99 197 -67 139 -99 b -17 -79 22 -99 -1 -87 l -39 -201 b 60 -225 -25 -208 8 -225 b 346 167 217 -225 346 -154 l 346 633 b 476 876 346 839 397 876 b 556 856 514 876 540 864 z "},"(":{"ha":468,"x_min":0,"x_max":0,"o":"m 99 274 b 238 -167 99 7 199 -124 l 372 -167 b 226 274 326 -114 226 13 b 554 986 226 692 485 925 l 415 986 b 99 274 358 938 99 713 z "},")":{"ha":468,"x_min":0,"x_max":0,"o":"m 419 546 b 281 986 419 813 319 943 l 146 986 b 292 546 192 933 292 807 b -36 -167 292 128 33 -106 l 103 -167 b 419 546 160 -118 419 107 z "},"[":{"ha":435,"x_min":0,"x_max":0,"o":"m 504 986 l 239 986 l 56 -167 l 322 -167 l 339 -64 l 193 -64 l 343 883 l 489 883 z "},"]":{"ha":435,"x_min":0,"x_max":0,"o":"m -21 -167 l 244 -167 l 428 986 l 161 986 l 144 883 l 290 883 l 140 -64 l -6 -64 z "},"{":{"ha":497,"x_min":0,"x_max":0,"o":"m 564 994 b 269 756 408 992 299 938 l 242 575 b 81 460 228 490 160 461 l 64 360 b 192 268 135 358 192 336 b 186 222 192 260 189 233 l 163 72 b 154 -6 158 49 154 18 b 383 -175 154 -129 247 -172 l 397 -72 b 281 24 324 -69 281 -49 b 288 101 281 44 283 76 l 308 224 b 315 290 311 243 315 278 b 197 407 315 365 261 404 l 197 410 b 361 561 271 415 344 460 l 389 733 b 556 892 408 861 468 889 z "},"}":{"ha":497,"x_min":0,"x_max":0,"o":"m -18 -175 b 276 64 138 -172 247 -118 l 304 244 b 465 360 318 329 386 358 l 482 460 b 354 551 411 461 354 483 b 360 597 354 560 357 586 l 383 747 b 392 825 388 771 392 801 b 163 994 392 949 299 992 l 149 892 b 265 796 222 889 265 868 b 258 718 265 775 263 743 l 238 596 b 231 529 235 576 231 542 b 349 413 231 454 285 415 l 349 410 b 185 258 275 404 201 360 l 157 86 b -10 -72 138 -42 78 -69 z "},"‹":{"ha":374,"x_min":0,"x_max":0,"o":"m 319 167 l 204 392 l 396 622 l 271 622 l 50 394 l 203 167 z "},"›":{"ha":374,"x_min":0,"x_max":0,"o":"m 99 622 l 214 397 l 22 167 l 147 167 l 368 394 l 215 622 z "},"«":{"ha":579,"x_min":0,"x_max":0,"o":"m 317 167 l 199 392 l 390 622 l 271 622 l 50 394 l 206 167 z m 529 167 l 410 392 l 601 622 l 482 622 l 263 394 l 418 167 z "},"»":{"ha":579,"x_min":0,"x_max":0,"o":"m 306 622 l 424 397 l 232 167 l 351 167 l 572 394 l 417 622 z m 93 622 l 213 397 l 21 167 l 140 167 l 360 394 l 204 622 z "},"-":{"ha":508,"x_min":0,"x_max":0,"o":"m 490 475 l 88 475 l 68 349 l 471 349 z "},"­":{"ha":508,"x_min":0,"x_max":0,"o":"m 490 475 l 88 475 l 68 349 l 471 349 z "},"–":{"ha":853,"x_min":0,"x_max":0,"o":"m 836 497 l 93 497 l 74 371 l 817 371 z "},"—":{"ha":1257,"x_min":0,"x_max":0,"o":"m 1240 497 l 93 497 l 74 371 l 1221 371 z "},"_":{"ha":853,"x_min":0,"x_max":0,"o":"m 772 -115 l -36 -115 l -56 -243 l 753 -243 z "}," ":{"ha":989,"x_min":0,"x_max":0,"o":""},"⁄":{"ha":331,"x_min":0,"x_max":0,"o":"m 693 958 l 544 958 l -289 0 l -140 0 z "}," ":{"ha":131,"x_min":0,"x_max":0,"o":""},"¼":{"ha":1396,"x_min":0,"x_max":0,"o":"m 467 958 l 376 958 l 163 874 l 192 782 l 324 831 l 271 482 l 117 482 l 100 383 l 522 383 l 538 482 l 390 482 z m 1300 958 l 1151 958 l 318 0 l 467 0 z m 1360 236 l 1283 236 l 1338 575 l 1233 575 l 883 225 l 869 139 l 1149 139 l 1126 0 l 1246 0 l 1268 139 l 1343 139 z m 1164 236 l 1007 236 l 1192 433 l 1194 433 z "},"½":{"ha":1396,"x_min":0,"x_max":0,"o":"m 467 958 l 376 958 l 163 874 l 192 782 l 324 831 l 271 482 l 117 482 l 100 383 l 522 383 l 538 482 l 390 482 z m 1244 958 l 1096 958 l 263 0 l 411 0 z m 1358 422 b 1176 585 1358 522 1294 585 b 944 501 1056 585 979 531 l 985 417 b 1147 481 1013 440 1065 481 b 1233 401 1207 481 1233 446 b 1089 233 1233 343 1181 301 l 893 88 l 878 0 l 1303 0 l 1319 106 l 1078 106 l 1078 108 l 1161 167 b 1358 422 1268 240 1358 315 z "},"¾":{"ha":1396,"x_min":0,"x_max":0,"o":"m 572 829 b 393 968 572 922 506 968 b 165 894 276 968 203 924 l 199 814 b 357 868 228 835 278 868 b 450 804 419 868 450 843 b 289 719 450 749 393 719 l 239 719 l 226 628 l 275 628 b 415 554 376 628 415 600 b 282 475 415 507 367 475 b 139 532 200 475 157 514 l 93 440 b 285 374 118 419 176 374 b 535 547 435 374 535 440 b 432 676 535 629 493 661 l 432 679 b 572 829 494 692 572 732 z m 1271 958 l 1122 958 l 289 0 l 438 0 z m 1360 236 l 1283 236 l 1338 575 l 1233 575 l 883 225 l 869 139 l 1149 139 l 1126 0 l 1246 0 l 1268 139 l 1343 139 z m 1164 236 l 1007 236 l 1192 433 l 1194 433 z "},"⁰":{"ha":563,"x_min":0,"x_max":0,"o":"m 586 733 b 393 968 586 899 492 968 b 108 608 261 968 108 858 b 301 374 108 443 203 374 b 586 733 433 374 586 483 z m 465 729 b 317 476 465 560 390 476 b 229 613 263 476 229 517 b 378 865 229 782 303 865 b 465 729 432 865 465 825 z "},"¹":{"ha":563,"x_min":0,"x_max":0,"o":"m 474 958 l 383 958 l 169 874 l 199 782 l 331 831 l 278 482 l 124 482 l 107 383 l 529 383 l 544 482 l 397 482 z "},"²":{"ha":563,"x_min":0,"x_max":0,"o":"m 576 806 b 394 968 576 906 513 968 b 163 885 274 968 197 914 l 203 800 b 365 864 231 824 283 864 b 451 785 425 864 451 829 b 307 617 451 726 399 685 l 111 471 l 96 383 l 521 383 l 538 489 l 296 489 l 296 492 l 379 550 b 576 806 486 624 576 699 z "},"³":{"ha":563,"x_min":0,"x_max":0,"o":"m 574 829 b 394 968 574 922 507 968 b 167 894 278 968 204 924 l 200 814 b 358 868 229 835 279 868 b 451 804 421 868 451 843 b 290 719 451 749 394 719 l 240 719 l 228 628 l 276 628 b 417 554 378 628 417 600 b 283 475 417 507 368 475 b 140 532 201 475 158 514 l 94 440 b 286 374 119 419 178 374 b 536 547 436 374 536 440 b 433 676 536 629 494 661 l 433 679 b 574 829 496 692 574 732 z "},"⁴":{"ha":563,"x_min":0,"x_max":0,"o":"m 578 619 l 501 619 l 556 958 l 451 958 l 101 608 l 88 522 l 367 522 l 344 383 l 464 383 l 486 522 l 561 522 z m 382 619 l 225 619 l 410 817 l 413 817 z "},"⁵":{"ha":563,"x_min":0,"x_max":0,"o":"m 546 579 b 304 746 546 688 464 746 l 285 746 l 313 857 l 568 857 l 585 958 l 238 958 l 163 656 l 265 656 b 422 574 369 656 422 631 b 290 476 422 511 374 476 b 133 538 204 476 158 515 l 92 438 b 290 374 118 417 169 374 b 546 579 443 374 546 446 z "},"⁶":{"ha":563,"x_min":0,"x_max":0,"o":"m 565 596 b 401 750 565 689 517 750 b 247 707 339 750 286 731 b 450 867 272 817 343 867 b 556 831 507 867 542 842 l 592 924 b 447 968 572 938 529 968 b 122 607 282 968 122 849 b 325 374 122 454 196 374 b 565 596 461 374 565 460 z m 238 613 b 238 631 238 618 238 625 b 358 663 268 649 310 663 b 451 585 418 663 451 635 b 336 472 451 518 408 472 b 238 613 276 472 238 515 z "},"⁷":{"ha":563,"x_min":0,"x_max":0,"o":"m 629 958 l 174 958 l 157 856 l 460 856 l 460 853 l 100 383 l 250 383 l 615 869 z "},"⁸":{"ha":563,"x_min":0,"x_max":0,"o":"m 581 832 b 392 968 581 917 507 968 b 157 801 260 968 157 906 b 243 676 157 732 200 697 l 243 675 b 100 508 182 650 100 607 b 299 374 100 424 176 374 b 546 542 443 374 546 435 b 451 678 546 617 494 658 l 451 679 b 581 832 504 703 581 739 z m 472 817 b 360 713 472 761 410 732 b 267 799 318 728 267 749 b 382 881 267 851 318 881 b 472 817 436 881 472 857 z m 432 550 b 308 464 432 497 381 464 b 214 531 249 464 214 490 b 333 640 214 593 285 622 b 432 550 376 625 432 601 z "},"⁹":{"ha":563,"x_min":0,"x_max":0,"o":"m 578 739 b 371 968 578 888 500 968 b 132 746 232 968 132 879 b 296 583 132 649 194 583 b 453 628 363 583 414 603 b 257 475 429 521 365 475 b 135 517 190 475 150 506 l 99 419 b 256 374 117 406 161 374 b 578 739 439 374 578 489 z m 243 754 b 360 869 243 828 293 869 b 463 736 425 869 463 828 b 463 708 463 726 463 717 b 336 669 433 689 389 669 b 243 754 274 669 243 700 z "},"⁽":{"ha":321,"x_min":0,"x_max":0,"o":"m 117 592 b 203 325 117 432 181 351 l 304 325 b 218 593 278 356 218 439 b 414 1017 218 839 369 978 l 310 1017 b 117 592 272 986 117 851 z "},"⁾":{"ha":321,"x_min":0,"x_max":0,"o":"m 332 750 b 246 1017 332 910 268 990 l 144 1017 b 231 749 171 986 231 903 b 35 325 231 503 79 364 l 139 325 b 332 750 176 356 332 490 z "},"₀":{"ha":563,"x_min":0,"x_max":0,"o":"m 494 142 b 301 376 494 307 400 376 b 17 17 169 376 17 267 b 210 -218 17 -149 111 -218 b 494 142 342 -218 494 -108 z m 374 138 b 225 -115 374 -32 299 -115 b 138 21 171 -115 138 -75 b 286 274 138 190 211 274 b 374 138 340 274 374 233 z "},"₁":{"ha":563,"x_min":0,"x_max":0,"o":"m 382 367 l 292 367 l 78 282 l 107 190 l 239 239 l 186 -110 l 32 -110 l 15 -208 l 438 -208 l 453 -110 l 306 -110 z "},"₂":{"ha":563,"x_min":0,"x_max":0,"o":"m 485 214 b 303 376 485 314 421 376 b 71 293 182 376 106 322 l 111 208 b 274 272 139 232 192 272 b 360 193 333 272 360 238 b 215 25 360 135 307 93 l 19 -121 l 4 -208 l 429 -208 l 446 -103 l 204 -103 l 204 -100 l 288 -42 b 485 214 394 32 485 107 z "},"₃":{"ha":563,"x_min":0,"x_max":0,"o":"m 482 238 b 303 376 482 331 415 376 b 75 303 186 376 113 332 l 108 222 b 267 276 138 243 188 276 b 360 213 329 276 360 251 b 199 128 360 157 303 128 l 149 128 l 136 36 l 185 36 b 325 -37 286 36 325 8 b 192 -117 325 -85 276 -117 b 49 -60 110 -117 67 -78 l 3 -151 b 194 -218 28 -172 86 -218 b 444 -44 344 -218 444 -151 b 342 85 444 38 403 69 l 342 88 b 482 238 404 100 482 140 z "},"₄":{"ha":563,"x_min":0,"x_max":0,"o":"m 486 28 l 410 28 l 464 367 l 360 367 l 10 17 l -4 -69 l 275 -69 l 253 -208 l 372 -208 l 394 -69 l 469 -69 z m 290 28 l 133 28 l 318 225 l 321 225 z "},"₅":{"ha":563,"x_min":0,"x_max":0,"o":"m 454 -12 b 213 154 454 96 372 154 l 193 154 l 221 265 l 476 265 l 493 367 l 146 367 l 71 64 l 174 64 b 331 -18 278 64 331 39 b 199 -115 331 -81 282 -115 b 42 -54 113 -115 67 -76 l 0 -154 b 199 -218 26 -175 78 -218 b 454 -12 351 -218 454 -146 z "},"₆":{"ha":563,"x_min":0,"x_max":0,"o":"m 474 4 b 310 158 474 97 425 158 b 156 115 247 158 194 139 b 358 275 181 225 251 275 b 464 239 415 275 450 250 l 500 332 b 356 376 481 346 438 376 b 31 15 190 376 31 257 b 233 -218 31 -137 104 -218 b 474 4 369 -218 474 -132 z m 146 21 b 146 39 146 26 146 33 b 267 71 176 57 218 71 b 360 -7 326 71 360 43 b 244 -119 360 -74 317 -119 b 146 21 185 -119 146 -76 z "},"₇":{"ha":563,"x_min":0,"x_max":0,"o":"m 538 367 l 82 367 l 65 264 l 368 264 l 368 261 l 8 -208 l 158 -208 l 524 278 z "},"₈":{"ha":563,"x_min":0,"x_max":0,"o":"m 489 240 b 300 376 489 325 415 376 b 65 210 168 376 65 314 b 151 85 65 140 108 106 l 151 83 b 8 -83 90 58 8 15 b 207 -218 8 -168 85 -218 b 454 -50 351 -218 454 -157 b 360 86 454 25 403 67 l 360 88 b 489 240 413 111 489 147 z m 381 225 b 268 121 381 169 318 140 b 175 207 226 136 175 157 b 290 289 175 260 226 289 b 381 225 344 289 381 265 z m 340 -42 b 217 -128 340 -94 289 -128 b 122 -61 157 -128 122 -101 b 242 49 122 1 193 31 b 340 -42 285 33 340 10 z "},"₉":{"ha":563,"x_min":0,"x_max":0,"o":"m 486 147 b 279 376 486 296 408 376 b 40 154 140 376 40 288 b 204 -8 40 57 103 -8 b 361 36 271 -8 322 11 b 165 -117 338 -71 274 -117 b 43 -75 99 -117 58 -86 l 7 -172 b 164 -218 25 -186 69 -218 b 486 147 347 -218 486 -103 z m 151 163 b 268 278 151 236 201 278 b 371 144 333 278 371 236 b 371 117 371 135 371 125 b 244 78 342 97 297 78 b 151 163 182 78 151 108 z "},"←":{"ha":1121,"x_min":0,"x_max":0,"o":"m 579 933 l 83 438 l 579 -58 l 668 29 l 317 374 l 317 376 l 1058 376 l 1058 500 l 317 500 l 317 503 l 668 846 z "},"↑":{"ha":1117,"x_min":0,"x_max":0,"o":"m 1054 438 l 558 933 l 63 438 l 150 349 l 494 700 l 497 700 l 497 -42 l 621 -42 l 621 700 l 624 700 l 967 349 z "},"→":{"ha":1121,"x_min":0,"x_max":0,"o":"m 542 -58 l 1038 438 l 542 933 l 453 846 l 804 501 l 804 499 l 63 499 l 63 375 l 804 375 l 804 372 l 453 29 z "},"↓":{"ha":1117,"x_min":0,"x_max":0,"o":"m 63 438 l 558 -58 l 1054 438 l 967 526 l 622 175 l 619 175 l 619 917 l 496 917 l 496 175 l 493 175 l 150 526 z "},"↖":{"ha":910,"x_min":0,"x_max":0,"o":"m 826 808 l 125 808 l 125 107 l 250 107 l 244 597 l 246 600 l 771 75 l 858 164 l 335 688 l 336 690 l 826 683 z "},"↗":{"ha":910,"x_min":0,"x_max":0,"o":"m 83 808 l 83 683 l 574 690 l 575 688 l 51 164 l 139 75 l 664 600 l 665 597 l 660 107 l 785 107 l 785 808 z "},"↘":{"ha":910,"x_min":0,"x_max":0,"o":"m 83 107 l 785 107 l 785 808 l 660 808 l 665 318 l 664 315 l 139 840 l 51 751 l 575 228 l 574 225 l 83 232 z "},"↙":{"ha":910,"x_min":0,"x_max":0,"o":"m 826 107 l 826 232 l 336 225 l 335 228 l 858 751 l 771 840 l 246 315 l 244 318 l 250 808 l 125 808 l 125 107 z "},"↰":{"ha":1083,"x_min":0,"x_max":0,"o":"m 531 32 l 619 119 l 317 414 l 317 417 l 833 417 l 833 0 l 958 0 l 958 540 l 317 540 l 317 543 l 619 839 l 531 926 l 83 479 z "},"↱":{"ha":1083,"x_min":0,"x_max":0,"o":"m 553 32 l 1000 479 l 553 926 l 464 839 l 767 543 l 767 540 l 125 540 l 125 0 l 250 0 l 250 417 l 767 417 l 767 414 l 464 119 z "},"↲":{"ha":1083,"x_min":0,"x_max":0,"o":"m 531 885 l 83 438 l 531 -10 l 619 78 l 317 374 l 317 376 l 958 376 l 958 917 l 833 917 l 833 500 l 317 500 l 317 503 l 619 797 z "},"↳":{"ha":1083,"x_min":0,"x_max":0,"o":"m 553 885 l 464 797 l 767 503 l 767 500 l 250 500 l 250 917 l 125 917 l 125 376 l 767 376 l 767 374 l 464 78 l 553 -10 l 1000 438 z "},"↴":{"ha":1096,"x_min":0,"x_max":0,"o":"m 132 431 l 579 -17 l 1026 431 l 939 519 l 643 217 l 640 217 l 640 858 l 100 858 l 100 733 l 517 733 l 517 217 l 514 217 l 219 519 z "},"↵":{"ha":1083,"x_min":0,"x_max":0,"o":"m 531 885 l 83 438 l 531 -10 l 619 78 l 317 374 l 317 376 l 958 376 l 958 917 l 833 917 l 833 500 l 317 500 l 317 503 l 619 797 z "},"■":{"ha":739,"x_min":0,"x_max":0,"o":"m 614 650 l 125 650 l 125 161 l 614 161 z "},"□":{"ha":739,"x_min":0,"x_max":0,"o":"m 614 650 l 125 650 l 125 161 l 614 161 z m 503 539 l 503 272 l 236 272 l 236 539 z "},"▴":{"ha":722,"x_min":0,"x_max":0,"o":"m 639 182 l 361 779 l 83 182 z "},"▵":{"ha":722,"x_min":0,"x_max":0,"o":"m 639 182 l 361 779 l 83 182 z m 486 279 l 236 279 l 360 561 l 363 561 z "},"▶":{"ha":785,"x_min":0,"x_max":0,"o":"m 125 128 l 722 406 l 125 683 z "},"▷":{"ha":785,"x_min":0,"x_max":0,"o":"m 125 128 l 722 406 l 125 683 z m 222 281 l 222 531 l 504 407 l 504 404 z "},"▾":{"ha":722,"x_min":0,"x_max":0,"o":"m 83 688 l 361 90 l 639 688 z "},"▿":{"ha":722,"x_min":0,"x_max":0,"o":"m 83 688 l 361 90 l 639 688 z m 236 590 l 486 590 l 363 308 l 360 308 z "},"◀":{"ha":785,"x_min":0,"x_max":0,"o":"m 660 128 l 660 683 l 63 406 z "},"◁":{"ha":785,"x_min":0,"x_max":0,"o":"m 660 128 l 660 683 l 63 406 z m 563 281 l 281 404 l 281 407 l 563 531 z "},"○":{"ha":739,"x_min":0,"x_max":0,"o":"m 631 406 b 369 667 631 554 518 667 b 108 406 221 667 108 554 b 369 144 108 257 221 144 b 631 406 518 144 631 257 z m 519 406 b 369 256 519 321 454 256 b 219 406 285 256 219 321 b 369 556 219 490 285 556 b 519 406 454 556 519 490 z "},"●":{"ha":739,"x_min":0,"x_max":0,"o":"m 631 406 b 369 667 631 554 518 667 b 108 406 221 667 108 554 b 369 144 108 257 221 144 b 631 406 518 144 631 257 z "},"⬛":{"ha":1500,"x_min":0,"x_max":0,"o":"m 1375 1042 l 125 1042 l 125 -208 l 1375 -208 z "},"⬜":{"ha":1500,"x_min":0,"x_max":0,"o":"m 1375 1042 l 125 1042 l 125 -208 l 1375 -208 z m 1253 919 l 1253 -86 l 247 -86 l 247 919 z "},"◯":{"ha":1500,"x_min":0,"x_max":0,"o":"m 1392 417 b 750 1058 1392 779 1113 1058 b 108 417 388 1058 108 779 b 750 -225 108 54 388 -225 b 1392 417 1113 -225 1392 54 z m 1269 417 b 750 -103 1269 124 1043 -103 b 231 417 457 -103 231 124 b 750 936 231 710 457 936 b 1269 417 1043 936 1269 710 z "},"⬤":{"ha":1500,"x_min":0,"x_max":0,"o":"m 1392 417 b 750 1058 1392 779 1113 1058 b 108 417 388 1058 108 779 b 750 -225 108 54 388 -225 b 1392 417 1113 -225 1392 54 z "},"":{"ha":1389,"x_min":0,"x_max":0,"o":"m 1389 -278 l 1389 -167 l 111 -167 l 111 1111 l 0 1111 l 0 -278 z m 365 1111 l 256 1111 l 256 -22 l 1389 -22 l 1389 88 l 365 88 z m 622 1111 l 511 1111 l 511 233 l 1389 233 l 1389 344 l 622 344 z m 878 1111 l 767 1111 l 767 489 l 1389 489 l 1389 600 l 878 600 z m 1389 746 l 1389 856 l 1133 856 l 1133 1111 l 1024 1111 l 1024 746 z m 1389 1111 l 1278 1111 l 1278 1000 l 1389 1000 z "},"":{"ha":1389,"x_min":0,"x_max":0,"o":"m 1389 1111 l 0 1111 l 0 -278 l 111 -278 l 111 1000 l 1389 1000 z m 365 -278 l 365 746 l 1389 746 l 1389 856 l 256 856 l 256 -278 z m 622 -278 l 622 489 l 1389 489 l 1389 600 l 511 600 l 511 -278 z m 878 -278 l 878 233 l 1389 233 l 1389 344 l 767 344 l 767 -278 z m 1389 88 l 1024 88 l 1024 -278 l 1133 -278 l 1133 -22 l 1389 -22 z m 1389 -278 l 1389 -167 l 1278 -167 l 1278 -278 z "},"":{"ha":1389,"x_min":0,"x_max":0,"o":"m 0 -278 l 1389 -278 l 1389 1111 l 1278 1111 l 1278 -167 l 0 -167 z m 1024 1111 l 1024 88 l 0 88 l 0 -22 l 1133 -22 l 1133 1111 z m 767 1111 l 767 344 l 0 344 l 0 233 l 878 233 l 878 1111 z m 511 1111 l 511 600 l 0 600 l 0 489 l 622 489 l 622 1111 z m 0 746 l 365 746 l 365 1111 l 256 1111 l 256 856 l 0 856 z m 0 1111 l 0 1000 l 111 1000 l 111 1111 z "},"":{"ha":1389,"x_min":0,"x_max":0,"o":"m 0 1111 l 0 1000 l 1278 1000 l 1278 -278 l 1389 -278 l 1389 1111 z m 1024 -278 l 1133 -278 l 1133 856 l 0 856 l 0 746 l 1024 746 z m 767 -278 l 878 -278 l 878 600 l 0 600 l 0 489 l 767 489 z m 511 -278 l 622 -278 l 622 344 l 0 344 l 0 233 l 511 233 z m 0 88 l 0 -22 l 256 -22 l 256 -278 l 365 -278 l 365 88 z m 0 -278 l 111 -278 l 111 -167 l 0 -167 z "},"":{"ha":1389,"x_min":0,"x_max":0,"o":"m 1278 1111 l 1278 -278 l 1389 -278 l 1389 1111 z m 1024 1111 l 1024 -278 l 1133 -278 l 1133 1111 z m 767 1111 l 767 -278 l 878 -278 l 878 1111 z m 511 1111 l 511 -278 l 622 -278 l 622 1111 z m 256 1111 l 256 -278 l 365 -278 l 365 1111 z m 0 1111 l 0 -278 l 111 -278 l 111 1111 z "},"":{"ha":1389,"x_min":0,"x_max":0,"o":"m 1389 1111 l 0 1111 l 0 1000 l 1389 1000 z m 1389 856 l 0 856 l 0 746 l 1389 746 z m 1389 600 l 0 600 l 0 489 l 1389 489 z m 1389 344 l 0 344 l 0 233 l 1389 233 z m 1389 88 l 0 88 l 0 -22 l 1389 -22 z m 1389 -167 l 0 -167 l 0 -278 l 1389 -278 z "},"":{"ha":1389,"x_min":0,"x_max":0,"o":"m 214 972 b 139 1047 214 1013 179 1047 b 64 972 99 1047 64 1013 b 139 897 64 932 99 897 b 214 972 179 897 214 932 z m 492 972 b 417 1047 492 1013 457 1047 b 342 972 376 1047 342 1013 b 417 897 342 932 376 897 b 492 972 457 897 492 932 z m 769 972 b 694 1047 769 1013 735 1047 b 619 972 654 1047 619 1013 b 694 897 619 932 654 897 b 769 972 735 897 769 932 z m 1047 972 b 972 1047 1047 1013 1013 1047 b 897 972 932 1047 897 1013 b 972 897 897 932 932 897 b 1047 972 1013 897 1047 932 z m 1325 972 b 1250 1047 1325 1013 1290 1047 b 1175 972 1210 1047 1175 1013 b 1250 897 1175 932 1210 897 b 1325 972 1290 897 1325 932 z m 214 694 b 139 769 214 735 179 769 b 64 694 99 769 64 735 b 139 619 64 654 99 619 b 214 694 179 619 214 654 z m 492 694 b 417 769 492 735 457 769 b 342 694 376 769 342 735 b 417 619 342 654 376 619 b 492 694 457 619 492 654 z m 769 694 b 694 769 769 735 735 769 b 619 694 654 769 619 735 b 694 619 619 654 654 619 b 769 694 735 619 769 654 z m 1047 694 b 972 769 1047 735 1013 769 b 897 694 932 769 897 735 b 972 619 897 654 932 619 b 1047 694 1013 619 1047 654 z m 1325 694 b 1250 769 1325 735 1290 769 b 1175 694 1210 769 1175 735 b 1250 619 1175 654 1210 619 b 1325 694 1290 619 1325 654 z m 1325 417 b 1250 492 1325 457 1290 492 b 1175 417 1210 492 1175 457 b 1250 342 1175 376 1210 342 b 1325 417 1290 342 1325 376 z m 1047 417 b 972 492 1047 457 1013 492 b 897 417 932 492 897 457 b 972 342 897 376 932 342 b 1047 417 1013 342 1047 376 z m 769 417 b 694 492 769 457 735 492 b 619 417 654 492 619 457 b 694 342 619 376 654 342 b 769 417 735 342 769 376 z m 492 417 b 417 492 492 457 457 492 b 342 417 376 492 342 457 b 417 342 342 376 376 342 b 492 417 457 342 492 376 z m 214 417 b 139 492 214 457 179 492 b 64 417 99 492 64 457 b 139 342 64 376 99 342 b 214 417 179 342 214 376 z m 214 139 b 139 214 214 179 179 214 b 64 139 99 214 64 179 b 139 64 64 99 99 64 b 214 139 179 64 214 99 z m 492 139 b 417 214 492 179 457 214 b 342 139 376 214 342 179 b 417 64 342 99 376 64 b 492 139 457 64 492 99 z m 769 139 b 694 214 769 179 735 214 b 619 139 654 214 619 179 b 694 64 619 99 654 64 b 769 139 735 64 769 99 z m 1047 139 b 972 214 1047 179 1013 214 b 897 139 932 214 897 179 b 972 64 897 99 932 64 b 1047 139 1013 64 1047 99 z m 1325 139 b 1250 214 1325 179 1290 214 b 1175 139 1210 214 1175 179 b 1250 64 1175 99 1210 64 b 1325 139 1290 64 1325 99 z m 214 -139 b 139 -64 214 -99 179 -64 b 64 -139 99 -64 64 -99 b 139 -214 64 -179 99 -214 b 214 -139 179 -214 214 -179 z m 492 -139 b 417 -64 492 -99 457 -64 b 342 -139 376 -64 342 -99 b 417 -214 342 -179 376 -214 b 492 -139 457 -214 492 -179 z m 769 -139 b 694 -64 769 -99 735 -64 b 619 -139 654 -64 619 -99 b 694 -214 619 -179 654 -214 b 769 -139 735 -214 769 -179 z m 1047 -139 b 972 -64 1047 -99 1013 -64 b 897 -139 932 -64 897 -99 b 972 -214 897 -179 932 -214 b 1047 -139 1013 -214 1047 -179 z m 1325 -139 b 1250 -64 1325 -99 1290 -64 b 1175 -139 1210 -64 1175 -99 b 1250 -214 1175 -179 1210 -214 b 1325 -139 1290 -214 1325 -179 z "}}}
